<svg xmlns="http://www.w3.org/2000/svg" xmlns:xlink="http://www.w3.org/1999/xlink" xml:space="preserve" width="210mm" height="297mm" style="shape-rendering:geometricPrecision; text-rendering:geometricPrecision; image-rendering:optimizeQuality; fill-rule:evenodd; clip-rule:evenodd" viewBox="0 0 210 297">
 <defs>
  <style type="text/css">
   <![CDATA[
    .str1 {stroke:black;stroke-width:0.1;stroke-opacity:0.501961}
    .str0 {stroke:black;stroke-width:0.1}
    .str2 {stroke:black;stroke-width:0.5}
    .fil6 {fill:none}
    .fil1 {fill:#FFF}
    .fil0 {fill:white}
    .fil4 {fill:#C2C1C1;fill-rule:nonzero}
    .fil5 {fill:white;fill-rule:nonzero}
    .fil3 {fill:black;fill-rule:nonzero}
    .fil2 {fill:white;fill-rule:nonzero;fill-opacity:0.501961}
   ]]>
  </style>
 </defs>
 <g id="Plan_x0020_1">
  <metadata id="CorelCorpID_0Corel-Layer"/>

  <path class="fil1 str0" d="M30.2991 181.848c0.3354,0.1421 0.6689,0.3028 1.0302,0.3717 0.806,0.1542 1.2265,-0.0037 1.9714,0.4351 0.3012,0.1774 0.6505,-0.2922 1.0805,-0.1004 0.8704,0.3883 2.1627,1.9612 3.23,1.0263 0.5537,-0.485 2.6425,0.0349 3.2413,0.3347 2.1371,1.0702 3.3407,-1.6241 4.8452,-0.8255 0.4163,0.221 0.6439,0.4593 1.125,0.5466 0.9242,0.1678 0.9394,0.054 1.7821,0.5355 0.6311,0.3607 1.2065,0.8447 1.8935,1.0822 0.329,0.1137 1.1817,0.8558 1.6151,1.0375 0.2878,0.1206 0.6481,0.2297 0.9579,0.2566 0.5229,0.0455 1.059,0.0061 1.2141,-0.5801 0.085,-0.321 -0.2237,-0.6045 -0.2005,-0.9148l1.0025 -0.1116c0.3984,-0.2102 0.7697,0.0305 1.0143,-0.4909 0.376,-0.8018 -0.3712,-1.6453 0.7853,-2.0248 0.3948,-0.1295 0.8303,-0.1123 1.2196,-0.318 0.4776,-0.2523 0.4469,-0.5754 0.6906,-0.9929 0.1699,-0.227 0.0189,-0.3503 0.078,-0.5745 0.0543,-0.2065 0.2243,-0.341 0.2673,-0.5801 0.1291,-0.7184 -0.4778,-1.9626 0.7016,-1.9133 0.4284,0.018 0.6145,0.469 0.9524,0.4853 0.5399,0.0262 0.5889,-0.3087 0.9062,-0.6282 0.1154,-0.1346 0.2304,-0.2695 0.3461,-0.4038 0.0146,-0.017 0.023,-0.0468 0.0453,-0.0502 0.5378,-0.0821 1.1509,-0.1159 1.5537,-0.5187 0.2639,-0.2639 1.211,-0.6455 1.5593,-0.7977 0.2717,-0.1187 1.9443,0.1075 2.2611,0.1506 1.4052,0.1912 2.9894,1.9243 4.238,0.424 0.6776,-0.8141 0.5906,-1.0694 1.6819,-1.032 0.8676,0.0296 1.2618,0.6599 1.7432,1.2774 0.4065,0.5218 0.8531,1.0247 1.5092,1.1435 0.4139,0.0749 0.7677,0.6022 1.1361,0.4518 0.8289,-0.3384 1.4068,0.1455 2.1997,-0.541 0.5651,-0.4892 1.3387,-0.9463 1.6541,-1.6288 0.4423,-0.9573 -0.284,-2.1985 0.0779,-3.0457 0.1328,-0.3111 0.7314,-0.3976 1.0136,-0.2677 1.148,0.5282 -0.1424,3.7018 1.9992,1.969 0.4024,-0.3255 0.335,-1.3615 0.1337,-1.7905 -0.285,-0.6072 -0.9088,-1.2394 -0.2395,-1.7292 0.5653,-0.4137 1.154,-0.8088 1.8991,-0.8088 0.6393,0 0.8694,-0.115 1.2642,-0.6137 0.6186,-0.7813 0.8108,-0.9817 1.7821,-0.6582 0.309,0.103 0.5524,0.3944 0.841,0.4686 0.2965,0.0763 0.6706,-0.1274 1.019,-0.0669 0.3375,0.0585 0.335,0.2962 0.7352,0.0558 0.5467,-0.3286 0.8521,0.1149 1.2252,0.4685 0.6011,0.5698 1.91,0.048 2.623,-0.1896 1.1626,-0.3874 0.5954,-1.4544 0.7685,-2.3261 0.1302,-0.6559 0.1343,-1.3308 0.2015,-1.9962l-0.1291 -0.3521 -0.6069 -0.5635 -0.1504 -0.5968c0.0286,-0.2072 0.0205,-0.4248 -0.0056,-0.6359 -0.055,-0.4442 -0.101,-0.6223 -0.0223,-1.0877 0.0809,-0.478 -0.0276,-0.984 0.078,-1.4615 0.0396,-0.1792 0.2197,-0.2944 0.3296,-0.4417 0.2352,-0.1116 0.1888,-0.434 0.077,-0.6237 -0.2997,-0.5085 -0.2149,-1.0134 -0.0836,-1.5841 0.0872,-0.3793 0.2983,-0.4646 0.6015,-0.6471 0.3154,-0.1897 0.4995,-0.5803 0.5903,-0.9259 0.2848,-0.5547 0.5181,-0.454 1.0804,-0.4686 0.4684,-0.0121 0.8186,-0.4933 1.2864,-0.6024l0.2965 -0.0677c0.3801,-0.0258 0.7747,0.0297 1.1404,-0.0774 1.3818,-0.4044 2.6581,0.9242 3.4193,-0.9818 0.1232,-0.3083 0.2608,-0.6371 0.6015,-0.7418 0.5833,-0.1793 0.761,0.3688 1.2976,-0.2008 0.4484,-0.4759 0.7614,-0.2426 1.331,-0.1674 0.4827,0.0638 0.5014,0.0777 1.008,-0.1951 0.3432,-0.1849 0.6934,-0.2196 1.008,-0.3682 0.4668,-0.2205 0.4249,-1.1949 1.1082,-1.1156 0.3336,0.0386 0.6196,0.5458 0.9913,0.6024 0.4829,0.0734 1.3112,-1.007 1.6485,-1.3443 0.4256,-0.4255 1.2553,0.3807 1.8322,0.039 0.5645,-0.3344 1.1252,-1.2543 1.7821,-1.4949 1.5379,-0.5635 1.5205,2.322 2.6955,1.1992 0.9804,-0.9369 2.0241,0.2682 2.1329,1.3277 0.1361,1.3246 1.9352,1.8542 2.8681,0.8758 0.6158,-0.646 0.9985,-1.4525 1.4201,-2.2369 0.2242,-0.4172 0.5045,-0.427 0.9133,-0.4797 0.3629,-0.0468 0.4416,-0.6173 0.6404,-0.8925 0.0117,-0.0163 0.0134,-0.0496 0.0335,-0.0502 0.503,-0.0164 0.5384,-0.4544 0.5625,-0.8422 0.0304,-0.4878 0.2934,-0.5991 0.4511,-0.993 0.123,-0.3076 -0.0075,-1.1347 0.1791,-1.5224l-0.736 -0.5414c0.045,-0.1563 -0.0163,-0.667 -0.0613,-0.8312 -0.0503,-0.1835 -0.8164,0.0555 -1.1027,-0.0613 -1.0229,-0.4178 -0.3437,-1.0373 -0.2673,-1.9189 0.0938,-1.0822 1.806,-0.6311 1.5761,-1.8017 0.1875,-0.4775 0.075,-1.06 0.7295,-0.9482 0.4467,0.0763 0.7632,0.1295 0.8354,-0.3627 0.1096,-0.7483 1.3484,-0.148 1.8489,-0.6191 0.2517,-0.2371 0.3016,-0.5124 0.6739,-0.6024 0.4422,-0.1071 0.3264,-0.3972 0.7295,-0.4909 0.2329,-0.2544 0.3516,-0.4447 0.5457,-0.7475 0.1939,-0.3022 0.3002,0.0461 0.5291,0.1451 0.2642,0.1141 0.3134,0.1732 0.3731,0.4462 0.0401,0.1837 0.0784,0.2883 0.0892,0.4853 0.009,0.1677 0.2153,0.0199 0.2951,0.0056 0.3909,-0.0702 1.0626,0.797 1.537,0.5745 0.3702,-0.1734 0.4495,-0.503 0.8522,-0.2398 0.1727,0.113 0.1837,0.3144 0.1837,0.502 -0.0675,0.4184 0.0733,0.5337 0.401,0.6582 0.1575,0.0597 -0.0011,0.4105 0.0836,0.5968 0.0923,0.2029 0.2367,0.3043 0.3619,0.4742 0.1888,0.2561 -0.0912,0.4783 0.0223,0.7474 0.0753,0.1784 0.0714,0.2098 0.0501,0.4017 -0.0237,0.2131 0.1043,0.2952 0.1838,0.4685 0.1233,0.3953 -0.0045,1.1119 0.4233,1.2384 0.74,0.2189 0.1458,0.5678 0.696,0.7585 0.6502,0.2254 1.0749,0.3422 1.0749,1.0989 0,0.9851 0.5699,0.1118 0.8799,0.0279 0.6879,-0.1861 -0.2236,-0.6587 -0.4066,-0.7475 -0.3168,-0.1539 -0.3345,-0.7613 -0.0946,-0.6693 0.2039,0.0782 0.4563,0.3272 0.6571,0.4518 0.1992,0.1237 0.4556,0.1076 0.6739,0.2008 0.281,0.12 0.1935,0.4646 0.5402,0.5522 0.3179,0.0802 0.4505,0.2298 0.7073,0.3905 0.4988,0.3919 0.3397,0.7593 0.6906,1.2328 0.194,0.2617 0.6744,0.254 0.9578,0.4741 0.6832,0.5307 1.2235,0.3812 2.0216,0.4741 0.8671,0.1009 0.898,-0.1953 1.6095,-0.5299 0.0674,-0.0961 0.7943,-0.38 0.5346,-0.5411 -0.1774,-0.1099 -0.3947,-0.1698 -0.5736,-0.29 -0.353,-0.2374 -0.2522,-0.5931 -0.7519,-0.8144 -0.3849,-0.1703 -0.0349,-0.4839 -0.0278,-0.7809 0.01,-0.4214 -0.0838,-1.2212 0.4344,-1.3499 0.2642,-0.0656 0.5586,-0.0959 0.6293,-0.4295 0.063,-0.2975 -0.2878,-0.3732 -0.2618,-0.6582 0.0075,-0.0099 0.0344,-0.0561 0.0558,-0.0614 0.0382,-0.1559 0.3379,-0.6084 -0.0168,-0.675 -0.3407,-0.0638 -0.2939,-0.2492 -0.4956,-0.4518 -0.3276,-0.3289 -0.8294,-0.3995 -1.2085,-0.6805 -0.1122,-0.0833 -0.3686,-0.4081 -0.4399,-0.1897 -0.2422,0.742 -1.0301,-0.1962 -1.5427,0.2343 -0.2357,0.198 -0.0176,0.7765 -0.1559,0.9148 -0.0857,0.0857 -0.6375,-0.4697 -0.724,-0.5466 -0.6316,-0.3619 -1.4131,-0.6452 -2.133,-0.8312l-1.9213 -0.4964c-0.0395,-0.1568 0.674,-1.0379 0.7908,-1.1937 0.3458,-0.1981 0.9458,-0.3017 0.6405,-0.7531 -0.3027,-0.4475 -0.1585,-0.2798 -0.1783,-0.753 -0.0183,-0.4379 -0.8142,-0.8851 -0.4177,-1.2495 0.1407,-0.1292 0.9758,-0.8564 1.1195,-0.7697 0,0.333 -0.1281,0.4519 0.0222,0.792 0.1326,0.2996 0.4609,0.4383 0.5569,0.7698 0.1952,0.6744 0.3712,0.7163 0.9746,0.9204 0.4684,0.1584 0.2394,-0.3063 0.4678,-0.5522 0.1975,-0.2124 0.4949,-0.0361 0.6739,-0.2009 0.1262,-0.116 0.1923,-0.3201 0.3118,-0.4574 0.203,-0.2329 0.5455,-0.1991 0.5292,-0.5913 -0.0181,-0.4304 -0.2384,-0.6145 -0.0446,-1.0375 0.2192,-0.2794 0.259,-0.5837 0.7128,-0.6024 0.4634,-0.0191 1.583,-0.7235 1.8433,-1.11 0.4018,-0.5962 0.6753,-0.0863 1.203,0.2343 0.7443,0.4522 1.4145,0.2699 2.1274,0.9315 0.8418,0.7813 -0.2336,0.7525 -0.3453,1.4726 0.1229,0.1947 0.1268,0.3492 0.3675,0.4519 0.1857,0.0792 0.9514,-0.1575 1.1194,-0.2846 0.3155,-0.2385 0.3135,-0.3629 0.7407,-0.2844 0.4976,0.0913 1.1787,-0.1617 1.5872,0.2119 0.4559,0.4171 1.0331,0.3471 1.6094,0.5021 0.4945,0.184 0.9893,0.17 1.4865,0.335 0.1915,0.0636 0.2947,0.1284 0.4349,0.2686 0.3548,0.3548 0.2124,0.327 0.5839,-0.012 0.2675,-0.244 0.8599,-0.7786 0.6793,-1.1398 -0.1463,-0.2927 -0.1163,-0.4052 0.1251,-0.6028 0.2352,-0.1927 0.1792,-0.4384 0.1489,-0.7102 -0.1819,-0.3653 -0.6918,-0.4538 -0.2383,-0.7997 0.3285,-0.2507 0.1394,-0.8598 0.4171,-1.0503 0.2045,-0.1402 1.4584,0.2013 1.573,-0.1731 0.1011,-0.33 0.1489,-0.9011 -0.0477,-1.1757 -0.3151,-0.4398 -0.143,-0.2433 -0.143,-0.728 0,-0.0952 -0.1308,-0.5311 -0.0119,-0.5551 0.4211,-0.085 0.7823,-0.0147 1.1261,0.2149 0.4894,0.327 0.6771,0.4599 1.281,0.6445 0.4891,-0.1259 1.3258,0.2991 1.9544,0.197 0.3536,-0.0575 0.9034,-1.2881 0.9175,-1.2294 0.2391,0.0582 0.3254,0.3919 0.6674,0.4058 0.5074,0.0206 1.0335,-0.4416 1.5968,-0.4416 0.5298,0 1.3274,-0.0946 1.8411,-0.2208 0.2172,-0.2378 0.6152,-0.3977 0.8461,-0.6863 0.1258,-0.1573 -0.3173,-0.9933 -0.2562,-1.3906 0.1805,-1.1744 0.0574,-2.0412 1.6087,-1.7426 0.3277,0.0631 0.4204,0.2012 0.7746,0.0656 0.5027,-0.1923 0.6897,0.0403 1.144,0.1075 0.5091,0.0754 0.8427,-0.3493 1.1618,-0.6684 0.0827,-0.1108 0.1487,-0.2173 0.2034,-0.3184 0.1226,-0.3286 -0.1823,-1.3658 -0.3748,-1.6331 -0.2814,-0.3907 -0.6409,-0.2814 -1.013,-0.5491 -0.228,-0.1639 -0.6757,-0.0253 -0.9533,-0.0835 -0.59,-0.1239 -0.6061,-0.4851 -0.8342,-0.943 -0.3905,-0.7836 -1.0179,-0.2664 -1.4896,0.1552 -1.1625,0 -1.3453,-0.9469 -1.1678,-1.8739 0.3,-1.5659 -1.4431,0.0035 -1.6445,0.1074 -0.6705,0.3462 -0.7258,0.109 -1.299,-0.1671l-1.8828 -0.9071c-0.8335,-0.4015 -1.0214,-1.2369 -1.7041,-1.9217 -0.5952,-0.5972 -0.6932,-2.8015 -1.9544,-2.4349 -1.1784,0 -1.1067,0.3705 -1.8471,-0.5132 -0.1124,-0.1341 -2.2473,-0.4476 -0.9056,-0.8594 2.2425,-0.6882 0.4532,-0.784 0.7626,-2.2917 0.148,-0.7217 0.5331,-1.0709 0.4648,-1.9813 -0.0559,-0.7456 0.0959,-0.3979 0.6793,-0.6207 0.4707,-0.1797 0.8933,-0.4655 1.418,-0.4655 0.7023,0 1.1154,0.4124 1.7399,0.561 0.7779,0.185 1.0985,-0.1392 1.8113,0.5252 0.8805,0.8206 1.2033,0.6198 1.9067,-0.0836 0.8658,-0.8658 0.5939,-1.0747 0.0239,-1.7545l-0.1273 -0.9254 0 0c-0.3662,0.3201 -1.3177,1.111 -1.8267,0.7586 -0.6297,-0.4362 -1.4034,-1.2027 -1.4034,-2.0416 -0.2677,-0.8121 -0.2387,-1.8376 -0.3842,-2.683 -0.0999,-0.5802 -0.8863,-1.4894 -0.6627,-2.0806 -0.0116,-0.0308 -0.0056,-0.0949 -0.0056,-0.1227l-0.2005 -1.5675c-0.0646,-0.5046 -0.2491,-0.9471 -0.3174,-1.4336 -0.0381,-0.2715 0.0258,-0.5578 -0.0501,-0.8199 -0.0992,-0.3428 -0.5321,-0.7294 -0.4957,-1.1045 -0.2493,-0.6871 -0.3284,-1.6505 0.206,-2.22 0.511,-0.5447 0.9822,-0.6223 0.7519,-1.5675 -0.0108,-0.0035 -0.0005,-0.0019 -0.0111,-0.0056 -0.0216,-0.0852 -0.7051,0.0601 -0.8299,0.1227 -0.3594,0.1802 -0.7814,0.5115 -1.0971,0.7642 -0.3547,0.2842 -2.1164,0.9724 -2.3501,0.3849 -0.1775,-0.4463 -0.2841,-1.1429 -0.2841,-1.6231 0,-0.2045 -0.2498,-0.8153 -0.1169,-0.9595 0.1994,-0.2161 0.702,0.061 0.6739,-0.424 -0.0556,-0.9593 -1.1481,-0.4651 -1.6206,-0.7809 -0.524,-0.3499 -0.4461,0.7401 -0.4901,0.9985 0,0.7176 -0.0785,1.1517 -0.7741,1.5005 -0.5212,0.2614 -1.2596,0.2577 -1.849,0.212 -0.4482,-0.0347 -0.6166,-0.4908 -0.7073,-0.8646 0,-0.5808 -0.1203,-1.297 0.5625,-1.5563 0.5739,-0.2181 1.0465,-0.5139 1.4981,-0.9259 0.4074,-0.3718 0.0772,-0.527 -0.2061,-0.7475 -0.4528,-0.3527 -0.6397,-0.7992 -1.0414,-1.1547 -0.2485,-0.2798 -0.302,-0.495 -0.245,-0.8535 0.0543,-0.3403 -0.1163,-0.4973 -0.323,-0.7418 -0.4788,-0.5668 -0.6734,-0.9696 -0.7016,-1.7348 -0.0158,-0.4282 0.2501,-0.5353 0.2895,-0.8423 0.3064,-0.8287 -1.1423,-0.4127 -1.2865,-1.2495 -0.1151,-0.669 -0.6744,-1.3311 -1.2976,-1.6566 -0.4806,-0.251 -0.8076,-0.862 -1.0079,-1.3387 0,-0.8164 0.0734,-0.7052 -0.5793,-1.0655 -0.5409,-0.2985 -0.6923,-1.0047 -1.1583,-1.2383 -0.4004,-0.2009 -0.7673,-0.1247 -1.0191,-0.5522 -0.2429,-0.4127 -0.9716,-0.3919 -1.2697,-0.9148 -0.4371,-0.4371 -0.5098,-0.9668 -1.1418,-1.244 -0.4985,-0.2185 -1.0273,-0.1094 -1.5425,-0.1896 -0.1338,-0.0209 -0.7512,0.1687 -0.8688,0.2622 -0.4822,0.383 -0.5984,0.4753 -1.2356,0.4239l-1.1694 0.1785c-0.5295,-0.1764 -0.7387,0.8374 -1.2587,0.4908 -0.4228,-0.2818 -0.4915,-0.6684 -0.6015,-1.1378 -0.2153,-0.92 -0.8355,-3.9492 -2.1643,-4.0194l0 0c-0.1124,-0.0059 -0.2553,-0.0352 -0.3533,0.0489 -0.5011,0.4303 -1.0543,0.8807 -1.7264,1.0152 -1.0743,0.215 -1.0183,-0.6693 -1.7376,-0.6693 -0.61,0 -0.6513,0.9259 -1.047,0.9482 -1.6404,0.0925 -3.8003,-1.6223 -4.7449,-2.8112 -1.2251,-1.542 -2.3543,-0.5703 -3.4528,-1.6065 -0.353,-0.3331 -0.5755,-0.7226 -0.8809,-1.0076 0.2009,-0.226 0.4248,-0.4337 0.6026,-0.6782 0.0671,-0.0923 1.8905,-0.9951 1.2141,-1.6735 -0.6797,-0.6817 -0.0174,-1.4699 -0.078,-2.4209 -0.043,-0.6752 -0.4526,-1.1283 -0.568,-1.6957 -0.1249,-0.6148 -0.0793,-2.8937 -0.8354,-3.001 -1.246,-0.1767 -2.0593,1.6214 -2.5061,-0.4685 -0.1625,-0.7601 -0.176,-1.5656 0.3787,-2.1867 0.7054,-0.7898 2.6252,-1.2373 2.8848,-2.2758 0.1786,-0.715 -0.0155,-0.7117 -0.4121,-1.2048 -0.4164,-0.5178 -0.3039,-1.0188 -0.2562,-1.64 0.0143,-0.187 -0.0379,-0.0857 0.0112,-0.1339 0.0805,-0.0789 0.4075,-1.1396 0.568,-1.3276 0.4983,-0.5833 1.2822,-0.8927 1.0024,-1.8073 -0.3883,-1.2696 0.625,-2.5143 0.3565,-3.9046 -0.0974,-0.5042 -0.471,-0.6727 -0.8465,-0.9818 -0.4747,-0.3908 0.1383,-1.2044 -0.3565,-1.5841 -0.0602,-0.0461 -0.1358,-0.3016 -0.2005,-0.3347 -0.2354,-0.1206 -0.7236,-0.4773 -1.0915,-0.5913 -1.6592,-0.5142 -2.5441,-1.3125 -3.5754,-2.7444 -0.2834,-0.3935 -0.497,-0.7441 -0.6574,-1.0765 -0.6945,-0.0537 -1.5116,-0.569 -2.2055,-0.569 -0.7054,0 -1.2763,1.0773 -2.094,1.2383 -0.1841,0.0362 -0.3436,-0.0364 -0.5123,-0.0335 -1.6245,0.0281 -2.74,0.1681 -2.74,2.0695 0,1.4257 -1.8046,0.5961 -2.1218,-0.0949 -0.4242,-0.9237 -0.054,-1.2557 -1.2338,-0.5608l-0.0527 0.4382c-0.2985,0.8075 -0.6636,0.7657 -1.3867,1.1881 -0.6999,0.4087 -0.6187,-0.5084 -1.1806,-0.8981 -0.6203,-0.4302 -0.4969,-0.251 -1.1918,-0.251 -0.5243,0 -1.1126,-0.8872 -1.6206,-1.11 -0.4205,-0.3675 -0.4043,-0.5355 -1.0526,-0.5355 -0.3214,0 -0.9748,-0.1782 -1.1472,0.0725 -0.1202,0.1747 -0.2893,0.4392 -0.4121,0.0613 -0.0749,-0.2302 -0.1275,-0.583 -0.1114,-0.82 0.0227,-0.3354 -0.9761,-0.5623 -1.2474,-0.6525 -0.2483,-0.0828 -1.6725,-0.6026 -1.4091,0.184l0.273 0.8145c0.0636,0.1901 -0.2277,0.8874 -0.3342,1.0598 -0.1029,0.2058 -0.1502,0.4503 -0.2506,0.6526 -0.0939,0.1891 -0.2856,0.1468 -0.4177,0.2789 -0.2779,0.2779 -0.0383,0.6179 -0.4678,0.9873 -0.7303,0.628 1.2178,1.5191 0.0836,1.8017 -0.5452,0.1358 -0.9309,0.4616 -1.4202,0.0391 -0.51,-0.4404 -0.8427,-1.2855 -1.4646,-1.6679 -0.3474,-0.2137 -0.9238,-0.0824 -1.1862,-0.4127 -0.4646,-0.585 0.188,-0.6806 -0.9524,-0.6806 -0.5544,0 -0.7689,-0.5745 -1.3031,-0.5745 -0.5922,0 -0.8481,0.146 -1.4535,-0.0168 -0.1119,-0.0301 -0.7037,0.0548 -0.7129,-0.0558 -0.0105,-0.1261 0.3852,-0.5474 0.0446,-0.5242 -0.7363,0.0501 -0.1563,-0.542 -0.3341,-0.7643 -0.2044,-0.2555 -0.4679,-0.0685 -0.4846,-0.5187 -0.0133,-0.3596 -0.1481,-0.5822 -0.2283,-0.9092 -0.1018,-0.4149 0.0668,-0.6226 0.0668,-1.0153 0,-1.6385 -0.9449,-0.9367 -2.016,-1.2494 -0.5548,-0.1619 -0.6298,-0.0514 -1.1583,0.1394 -0.3514,0.1269 -0.9027,0.1651 -0.9245,-0.29l-0.0891 -1.8575c-0.0167,-0.3494 -0.2952,-0.8471 -0.2952,-1.1547 -0.0201,-0.005 -0.0207,-0.0627 -0.0226,-0.0725l-0.4731 -0.6944c-0.0363,0.0281 -0.07,0.0553 -0.1001,0.0808 -0.4531,0.3806 -1.5171,-0.0197 -1.7933,-0.5243 -0.0141,-0.0259 -0.0548,-0.0574 -0.078,-0.0725 -0.7473,-0.4901 -0.859,0.2841 -1.6429,-0.3069 -0.6482,-0.4887 -0.9738,1.4464 -1.4758,0.2176 -0.2884,-0.706 -3.8674,-1.8298 -4.6223,-1.6511 -0.6816,0.1613 -1.1176,-0.4339 -1.693,-0.3291 -0.5165,0.094 -1.1156,0.1959 -1.3087,0.7307 -0.117,0.3243 -0.4866,0.7426 -0.8409,0.4295 -0.3778,-0.3339 -0.4442,-0.8333 -1.0414,-0.7195 -0.9214,0.1755 -1.3541,-0.0598 -2.0328,-0.6527 -0.4246,-0.3709 -0.8157,-0.6443 -1.0024,-1.2049 -0.1705,-0.5118 -0.3372,-0.9162 -0.9635,-0.8366 -0.3778,0.0479 -0.2881,-0.2551 -0.607,-0.3682 -0.3882,-0.1377 -0.8651,-0.1439 -0.5513,-0.6916 0.3834,-0.6695 -0.6155,-0.4392 -0.9764,-0.2888l-0.0149 0.5341c0,0.7363 0.0709,1.0376 -0.2284,1.7293 0.1597,0.1046 0.1626,0.3365 0.4512,0.4462 0.2095,0.0795 0.4427,-0.0121 0.6627,0 0.7545,0.0414 0.5533,0.3292 0.4288,0.926 -0.0637,0.3055 0.3112,0.5429 0.5346,0.6749 0.2735,0.1614 0.7192,0.4536 0.763,0.7921 0,0.3167 -0.2117,0.5849 -0.2117,0.8757 0,0.282 0.017,0.4537 -0.0946,0.7196 -0.2246,0.5347 -0.8214,0.4039 -0.6516,1.0654 0.0988,0.3849 0.0153,0.4556 -0.3286,0.608 -0.5173,0.2294 -0.333,0.4777 -0.6905,0.7252 -0.5039,0.349 -0.8704,-0.3292 -1.3477,0.1896 -0.1777,0.4699 -0.7439,0.8557 -0.0947,1.071 0.606,0.2011 0.4082,0.7639 0.5903,1.3109 0.1169,0.3506 0.4036,0.6672 0.479,0.9817 0.0873,0.3639 0.0168,0.8058 0.1058,1.177 0.0578,0.2411 -0.3225,0.2959 -0.3955,0.4908 -0.0415,0.3423 -0.809,0.1279 -0.6015,0.4518l0.4289 0.6695 0.0056 0.8367c0.0017,0.2827 0.2367,0.512 0.3174,0.7753 0.1195,0.3906 0.3654,1.146 0.3008,1.5507 -0.4694,0.7367 -0.9427,0.2941 -1.5482,0.5188 -0.4692,0.1742 -1.1279,0.7053 -1.6374,0.5912 -0.3314,-0.0741 -0.567,0.4766 -0.8632,0.6304 -0.4847,0.2515 -0.891,0.1088 -0.891,0.8032 0,0.5401 -0.0705,1.2934 -0.2172,1.8073 0,0.7369 0.5958,0.5916 0.6961,1.1101 0.1172,0.6063 -0.4252,1.0815 -0.4734,1.6175 -0.0327,0.3635 -0.0503,0.6621 -0.1337,1.0097 -0.0996,0.4156 0.3084,0.5053 -0.1113,0.859 -0.3789,0.2749 -1.1129,0.7137 -1.5037,0.2901 -0.503,-0.5455 -0.6365,-0.4929 -1.3811,-0.4295 -0.2492,0.0212 -0.7762,-0.3955 -0.8744,-0.3347 -0.4469,0.2771 -0.6085,0.8463 -1.1472,0.463l-0.2172 -1.0989c-0.0431,-0.2181 -0.5405,-0.2315 -0.7073,-0.4909 -0.1563,-0.4763 -0.2917,-0.6959 -0.813,-0.7753 -0.5735,-0.0874 -0.8638,-0.3899 -1.1528,-0.8925 -0.1967,-0.3421 -0.541,-0.3355 -0.7686,-0.6024 -0.3421,-0.4012 -0.6787,0.0176 -1.0414,0.1449 -0.2979,0.1865 -0.4251,0.4793 -0.7907,0.6193 -0.3471,0.1327 -0.4536,-0.049 -0.7464,-0.067 -0.1869,-0.0115 -1.1472,0.7608 -1.1472,0.9483 0,0.9745 1.8611,0.8538 1.771,1.4056 -0.0531,0.3254 -1.3174,-0.021 -1.4591,0.3682l-0.3898 1.071c-0.0532,0.4388 -0.1423,0.488 -0.3676,0.8143 -0.2211,0.3204 -0.2266,0.4931 0.0501,0.7698 0.5411,0.5411 -0.0068,0.6561 0.0223,1.1882 0.0321,0.5873 -0.7073,0.7866 -0.7073,0.9929 0,0.1479 0.1878,0.3347 0.2228,0.4908 0.1466,0.3343 0.6353,1.534 -0.117,1.534 -0.6113,0 -0.4514,-1.3065 -1.2809,-0.4909l-0.1948 0.82c-0.1093,0.4599 0.0066,0.4759 0.0278,0.8646 0.0333,0.6076 -1.3254,-0.1673 -1.5148,-0.1673 -0.0747,0 -0.0946,0.9965 -0.0946,1.1769 0,0.1903 0.2541,0.2965 0.2282,0.5634 0,0.2239 0.1727,0.4164 0.1727,0.6304 0,0.2217 -0.1727,0.4006 -0.1727,0.6247 0,0.1483 0.6466,0.6152 0.7798,0.2901 0.1475,-0.3606 0.2879,-0.2269 0.5847,-0.1506 0.3072,0.0791 0.6346,0.1269 0.6628,0.5187 0.0317,0.4435 -0.4127,0.9315 0.3897,0.9315 0.5652,0 1.2522,-0.4425 0.9524,0.5188 -0.0475,0.1521 -0.2474,0.2294 -0.3119,0.3625 0,1.0144 0.8343,0.4621 1.4591,0.7755 0.1677,0.0841 0.1919,0.2812 0.3509,0.3569 0.3067,0.1459 0.2433,0.1928 0.3063,0.5188 0.0847,0.438 -0.0548,0.5394 0.4177,0.7641 0.32,0.1524 0.7808,0.4476 0.8677,0.82l0.6502 0.1492c-0.0405,0.2326 -0.0503,0.4573 -0.0867,0.6374 -0.0927,0.4575 -1.2589,0.0811 -1.3979,0.0558 -0.4567,-0.0835 -1.0607,0.2641 -1.4702,0.4629 -0.7807,0.3789 -1.4926,0.3734 -1.6819,1.4559 -0.1455,0.8327 -0.2747,1.5603 -0.8298,2.2089 -0.2141,0.2502 -0.153,0.6829 -0.2728,0.9762 -0.0112,0.0275 -0.0294,0.017 -0.0668,0.039 -0.4854,0.2866 -1.2381,-0.2568 -1.6374,0.3235 -0.2705,0.3933 -0.717,1.0352 -0.8353,1.495 -0.199,0.7733 0.3509,1.4201 0.6543,2.123l-0.5318 0.4597c-0.3399,0.4379 -0.1893,1.0389 -0.5179,1.4782 -0.2767,0.3696 -0.737,0.1083 -1.1139,0.2007 -1.0931,0.2684 -1.1717,1.5038 -2.2164,0.3905 -0.2448,-0.2609 -1.565,-0.2914 -1.565,0.1562 0,0.7325 0.2325,1.3388 0.3008,2.0415 0.098,0.9056 -0.546,0.1246 -0.8632,0.1897 -0.5145,0.1057 -0.2651,0.7808 -0.9301,0.7531 -0.4627,-0.0194 -0.3646,0.2638 -0.0167,0.396 0.3554,0.1349 0.6773,0.1376 1.0024,0.2175 0.0987,0.395 -0.3008,0.4438 -0.5625,0.5745 -0.6097,0.3049 -0.6041,-0.1729 -1.0859,-0.1729 -0.1694,0 -0.644,0.0957 -0.7017,0.2789 -0.2545,0.8059 1.926,0.2871 0.9691,1.7013 -0.4022,0.6049 -0.6337,1.1485 -0.7909,1.8464 -0.1133,0.5026 -0.5193,0.8741 0.1504,1.0431 0.5734,0.1446 1.699,0.2552 1.4201,1.1212l-0.4511 0.6024 0 0 0.5291 0.3682c0.1651,0.0247 0.2265,-0.106 0.3843,-0.106 0.1332,0.4136 0.6619,0.4886 0.8966,0.7753 0.2457,0.3 -0.098,0.3853 -0.3063,0.5244 -0.317,0.2119 -0.6272,0.8253 -0.646,1.216 -0.012,0.2473 0.2377,0.4281 0.362,0.608 0.1417,0.2054 -0.0714,0.4719 -0.1559,0.6638 -0.4766,0.5194 0.2258,0.9901 0.3675,1.4782 0.1008,0.3471 0.1024,0.774 0.1782,1.1379 0.0589,0.2823 0.0271,0.5483 0.0947,0.8367 0.0663,0.2825 -0.3408,0.7193 -0.6071,0.7865 -0.4647,0.1172 -0.6743,-0.0556 -1.0024,0.4686l-0.724 0.4183 -0.1636 0.6303c0.1818,0.0593 0.3743,0.1085 0.5312,0.1339 0.6315,0.1026 1.1332,-0.0417 1.3756,0.675 0.2019,0.5972 0.4984,-0.1975 0.852,0.2398 0.1976,0.2445 0.3767,0.5508 0.6962,0.6638 0.2939,0.1039 1.1726,-0.3357 0.9077,0.4184 -0.1477,0.4203 0.287,0.3178 0.078,0.9538 -0.0311,0.0944 -0.1188,0.2839 -0.1687,0.4625l-0.4106 0.1121c-0.4098,0.3123 -0.6599,0.8328 -1.1248,1.1434 -0.3562,0.2379 0.1018,1.0696 -0.5068,0.9539 -0.3306,-0.0629 -0.4312,0.1373 -0.6293,0.3849 -0.1339,0.1674 0.0741,0.7232 -0.1839,0.7921 -0.4,0.1068 -1.1885,1.4874 -1.6484,1.8686 -0.0995,0.5177 -0.1714,0.4676 -0.6182,0.6304 -0.5644,0.2056 -0.0369,1.1875 0.2284,1.4782 0.2225,0.2439 0.2783,0.5552 0.5457,0.8032 0.0855,0.0795 0.6792,0.5512 0.6405,0.647 0.0158,0.016 0.0301,0.0706 0,0.0782 -0.0135,0.0554 -0.6544,0.1546 -0.7908,0.2119 -0.2876,0.1207 -0.7863,0.3649 -1.0248,0.569 -0.276,0.2364 -0.6165,0.1441 -0.9578,0.2956 -0.0374,0.0124 -0.0546,0.0075 -0.0612,0.0279 -1.0934,0.2756 -1.0511,0.7414 -0.8799,1.785 0.0895,0.546 -0.5124,0.5651 -0.5124,1.149 0,0.2992 -0.0861,0.4564 -0.3398,0.6136 -0.3321,0.2058 -0.1949,0.4076 -0.1949,0.7084 0.1367,0.1558 0.3574,0.5543 0.3063,0.7587 -0.5045,0.1239 -0.7161,1.1678 -0.1392,1.0933 0.2765,-0.0357 0.5728,-0.1536 0.8521,-0.0725 0.2089,0.0606 0.3308,0.2562 0.5513,0.3012 0.3408,0.0697 0.6642,0.1321 0.9356,0.3681 0.5712,0.4965 0.4042,-0.8006 0.6404,-1.0375 0.2849,-0.2859 0.7681,0.6715 0.9412,0.7587 0.2799,-0.0528 0.4694,-0.0669 0.7296,-0.2176 0.5245,-0.3043 0.7023,-0.5517 0.8465,0.1394 0.0625,0.3001 0.284,0.414 0.5458,0.53 0.2394,0.1061 0.1893,0.3186 0.3731,0.4462 0.2703,0.1879 0.7055,-0.0781 1.0192,-0.0781 0.308,0 0.5756,0.1785 0.9132,0.1785 0.2032,0.1601 0.2349,0.4474 0.44,0.5857 0.2169,0.1463 0.159,-0.2957 0.3397,-0.2957 0.1126,0 0.6538,0.9034 0.7017,1.0599 0.1579,0.5151 -0.2653,0.3002 -0.5401,0.3849 -0.7829,0.241 -0.6217,-0.2632 -0.841,-0.8757 -0.0718,-0.2004 -0.2906,-0.2661 -0.2729,0.0222 0.0309,0.5032 0.1431,0.7883 -0.2617,1.1658 -0.2056,0.1918 -0.439,0.3829 -0.7129,0.2455 -0.6999,-0.351 -0.3819,0.4783 -0.5959,0.8256 -0.2449,0.3978 -0.7647,-0.3738 -1.2921,-0.1842 0,0.0002 -0.0382,0.0641 -0.05,0.067 -0.066,0.3393 -0.6005,0.0925 -0.7797,0.1618 -0.3655,0.1415 -1.0051,0.1238 -1.2697,0.4127 -0.0594,0.0648 -0.0608,0.6347 0.0222,0.6806 0.2197,0.1212 0.5878,0.0125 0.8131,0.0892 0,0.31 0.025,0.6671 -0.2172,0.9093 -0.3187,0.3186 -0.7915,0.3519 -0.841,0.8924 0.384,0.9922 -0.938,0.5398 -1.3253,0.2734 -0.1185,-0.0816 -0.3899,0.0724 -0.5514,0.0724 -0.5584,0 0.098,0.6385 -0.1169,1.0711 -0.1649,0.3321 -0.2275,0.6971 -0.3676,1.0319 -0.1074,0.2564 -0.274,0.416 -0.4121,0.6415 -0.2682,0.4376 0.6504,0.2362 0.6739,0.6192 0.0239,0.3893 -0.5314,0.3951 -0.7296,0.753 -0.0656,0.1503 -0.251,0.1509 -0.3508,0.2957 -0.1421,0.2058 -0.0387,0.708 -0.2618,0.8311 -0.2044,0.1129 -0.3388,-0.3225 -0.5068,-0.2009 -0.4372,0.3168 -0.9223,0.2709 -0.3675,0.7196 0.1211,0.0981 0.3914,0.7827 0.3174,0.9371 -0.1353,0.2819 -0.3694,0.2175 -0.6404,0.2175 -0.2713,0 -0.524,0.6424 -0.5569,0.8647 -0.0851,0.5749 0.4956,0.4968 0.4956,0.9092 0.1903,0.4932 0.1668,0.8535 0.6516,1.2049 0.6694,0.485 1.6283,0.3876 2.2109,0.859 0.2787,0.2255 0.1038,0.5994 0.2895,0.7642 0.278,0.2469 0.7583,0.3076 0.9301,0.6861 0.2156,0.582 0.9922,2.4746 0.3397,2.9006 -0.5869,0.3832 -0.7601,0.3364 -0.3731,1.1156 0.2956,0.5951 -0.4559,0.6459 -0.8743,0.7976 -0.0221,0.0093 -0.0611,0.0404 -0.078,0.0447 -0.0281,0.1108 -0.3388,0.0521 -0.4233,0.1952 -0.0734,0.1244 0.0567,0.2853 -0.0166,0.4685 -0.1039,0.2593 0.4624,0.5949 0.0278,0.7587 -0.8229,0.3102 -0.4402,0.3373 -0.4901,1.1044 -0.0214,0.3283 0.2224,0.5694 0.284,0.8758 0.0605,0.3008 0.0114,0.7239 -0.0111,1.0264 0.0937,0.3861 0.2578,0.7579 0.3508,1.1379 0.0841,0.3438 0.161,0.5551 0.3175,0.8702 0.4414,0.8883 -0.755,0.796 -1.0248,0.2565 -0.3394,-0.0664 -0.5305,0.0464 -0.3007,0.3794 0.1619,0.2344 0.3433,0.7963 0.3119,1.0821 -0.0304,0.279 -0.5275,0.0985 -0.724,0.4965 0.1039,0.3211 0.0933,0.644 0.2785,0.9426 0.1814,0.2928 0.3502,-0.0399 0.5457,-0.1004 0.2784,-0.086 1.0588,-0.0873 0.8076,0.3459 -0.1534,0.2645 -0.1333,1.0098 -0.3453,1.1435 -0.2146,0.1356 -0.2662,-0.1347 -0.5346,0.0446 -0.1803,0.1205 -0.9301,0.2613 -0.9301,0.424 0,0.0475 0.3014,0.2944 0.3509,0.3848 0.0349,0.0638 0.1463,0.4315 0.1559,0.4909 0.2583,0.052 0.1436,-0.419 0.401,-0.463 0.5551,-0.0947 0.8031,-0.0015 0.3341,0.5522 -0.1478,0.1746 -0.315,0.329 -0.4065,0.5467 -0.1129,0.269 0.1458,0.2235 0.2673,0.4184 -0.1293,0.2591 0.1086,0.5721 -0.2172,0.8479 -0.2754,0.2332 -0.4418,0.0334 -0.7351,0.0334 -0.4925,0 -0.6495,0.5162 -1.0136,0.7419 -0.2377,0.1474 -0.4525,-0.033 -0.7407,0.0948 -0.1273,0.0566 -0.5747,0.0662 -0.4956,0.3235 0.0502,0.1629 0.3193,0.2723 0.4233,0.4184 0.088,0.1236 -0.1863,0.4428 -0.1393,0.686 0.0736,0.3815 -0.1834,0.4214 -0.5068,0.4965 -0.4067,0.1577 -0.7613,-0.0193 -1.0581,0.463 -0.1529,0.2481 -0.3382,0.7776 -0.5959,0.9149 -0.2671,0.1422 -0.3604,0.0272 -0.6293,0.0669l-1.1695 0.1729c-0.6047,0.0893 -0.3927,0.1259 -0.8799,0.3011l-0.2278 0.2355c0.139,0.1343 0.2972,0.2577 0.3989,0.3782 0.2555,0.3025 0.4879,0.6259 0.7018,0.9594 0.2138,0.3333 0.386,0.6917 0.5791,1.0375 0.5111,-0.1489 0.6647,0.2436 1.1473,0.3458 0.6223,0.1318 0.6567,0.1243 1.1027,0.5356 0.3381,0.3119 1.3938,0.1636 1.9937,0.5355 0.5649,0.3501 1.2905,-0.2249 1.8825,-0.3236 0.4081,-0.068 1.0605,-0.0838 1.3923,0.2009 0.4593,0.394 1.3419,-0.062 1.8935,0.4908 0.4249,0.426 0.9327,0.9733 1.6039,1.0041 0.3021,0.0138 0.5985,0.0891 0.8978,0.1338l0.0613 0.8033c-0.2196,0.7581 -0.2123,0.2342 -0.8409,0.2342 -0.2838,0 -0.3226,-0.1626 -0.5402,0.1395 -0.1414,0.196 -0.4164,0.242 -0.607,0.3179 -0.0286,0.1423 -0.2663,0.7058 -0.362,0.8088 -0.1611,0.1736 -0.965,-0.4189 -1.2252,0.0056l-0.5403 0.8813c-0.1753,0.2861 -0.3353,1.4624 0.2506,1.2831 0.1353,-0.0414 0.723,-0.5004 0.6907,-0.0502 -0.0326,0.4534 -0.4941,0.1676 -0.7463,0.396 0,0.497 0.0115,0.984 -0.3341,1.4113 -0.2787,0.3445 -0.0339,1.7008 0.0612,2.1308 0.0765,0.3456 0.5254,0.263 0.7574,0.4964 0.0629,0.0633 -0.4223,0.5155 -0.44,0.8144 0.622,0.4389 0.5126,1.3221 0.2729,1.9245 -0.1663,0.4183 -0.2391,0.7471 -0.1503,1.1936 0.0766,0.3855 0.3953,0.7801 0.4121,1.1602 -0.0244,0.2654 0.0841,0.6271 0.1837,0.8758 0.1436,0.3587 0.0841,0.6058 -0.0055,0.9706l-0.0624 0.5208 0 0zm-20.2991 -171.848l190 0 0 185.559 -190 0 0 -185.559z"/>
 </g>
</svg>