<!DOCTYPE svg PUBLIC "-//W3C//DTD SVG 1.1//EN" "http://www.w3.org/Graphics/SVG/1.1/DTD/svg11.dtd">
<svg xmlns="http://www.w3.org/2000/svg" xmlns:xlink="http://www.w3.org/1999/xlink" xml:space="preserve" width="297mm" height="210mm" style="shape-rendering:geometricPrecision; text-rendering:geometricPrecision; image-rendering:optimizeQuality; fill-rule:evenodd; clip-rule:evenodd" viewBox="0 0 297 210">
 <defs>
  <style type="text/css">
   <![CDATA[
    .str4 {stroke:black;stroke-width:0.1;stroke-opacity:0.501961}
    .str5 {stroke:black;stroke-width:0.1}
    .str0 {stroke:#000066;stroke-width:0.1}
    .str1 {stroke:#003399;stroke-width:0.1}
    .str2 {stroke:#003399;stroke-width:0.2}
    .str3 {stroke:none;stroke-width:0.5}
    .fil2 {fill:#F7C491}

    .fil0 {fill:#75C5F0}
    .fil1 {fill:white}
    .fil5 {fill:#C2C1C1;fill-rule:nonzero}
    .fil6 {fill:white;fill-rule:nonzero}
    .fil4 {fill:black;fill-rule:nonzero}
    .fil3 {fill:white;fill-rule:nonzero;fill-opacity:0.501961}
   ]]>
  </style>
 </defs>
 <g id="Plan_x0020_1">
  <metadata id="CorelCorpID_0Corel-Layer"/>
  
  
  
  
  <path class="fil2 str3" d="M135.526 66.0101c0.0436,0.2535 0.1252,0.5051 0.1865,0.7428 0.0366,0.1421 -0.6529,0.646 -0.7893,0.6534 -0.2227,0.0122 -0.4073,-0.1011 -0.6204,-0.1051l-0.9444 -0.0182c-0.4707,-0.009 -0.4901,-0.2376 -0.8075,0.2056 -0.1058,0.2036 -0.2914,1.0942 -0.2008,1.3023 0.216,0.4964 0.4778,0.4198 -0.0684,0.8317 -0.3245,0.2448 -0.3971,0.2604 -0.8029,0.2604 -0.4563,0 -0.8395,0.135 -1.2683,0.2102 -0.484,0.2161 -0.6392,-0.136 -0.9991,-0.1096 -0.1418,0.0103 -0.2222,0.6224 -0.47,0.7768 -0.3884,0.2419 -1.6668,-0.0008 -1.9982,-0.3062 -0.4053,-0.3733 -0.4549,-0.3701 -1.063,-0.3701 -0.2107,0.6609 0.9625,2.0883 -0.4881,2.0883 -0.1032,0 -0.3097,-0.1334 -0.3878,-0.064 -0.1333,0.1187 -0.161,0.3654 -0.292,0.4707 -0.1244,0.3282 0.1688,0.3906 0.1688,0.6717 0,0.2308 -0.197,0.3253 -0.2464,0.5209 -0.0348,0.1381 0.1772,0.2522 0.1597,0.3884 -0.0195,0.1524 -0.412,0.4723 -0.5292,0.5895 -0.3438,0.3438 -0.2982,0.1493 -0.5931,-0.1005 -0.1545,-0.131 -0.3863,-0.1554 -0.5885,-0.1554 -0.2655,0 -0.3899,-0.1309 -0.6205,-0.1873 -0.2711,-0.0662 -0.5403,-0.0058 -0.8029,-0.1371 -0.3617,-0.1807 -0.5492,-0.1704 -0.9079,-0.2651 -0.6755,-0.1803 -0.3501,0.0097 -0.8257,0.2057 -0.1492,0.0615 -0.6958,0.1142 -0.8669,0.1142 -0.1296,-0.5363 0.0695,-0.4597 0.2692,-0.8591 0.0199,-0.04 -0.7149,-0.7902 -0.8258,-0.8453 -0.284,-0.1414 -0.6798,-0.1238 -0.9489,-0.3108 -0.6243,-0.4337 -0.3717,0.0157 -0.9033,0.297 -0.2235,0.1182 -0.5347,0.2703 -0.7847,0.3291 -0.4681,0.1101 -0.3506,0.1346 -0.6935,0.4661 -0.1257,0.2863 0.1727,0.5151 0.0867,0.7448 -0.0915,0.2441 -0.3282,0.3406 -0.4288,0.5666 -0.0545,0.1227 -0.3377,0.0658 -0.4425,0.1234 -0.2875,0.1579 -0.1251,0.3391 -0.2966,0.4889 -0.0507,0.0444 -0.5684,-0.1383 -0.625,-0.201 -0.2267,-0.2516 -0.2537,-0.609 -0.5019,-0.882 -0.1922,-0.2113 -0.1061,-0.3465 -0.1779,-0.562 -0.2411,0 -0.8135,0.5443 -0.625,0.8042 0.2191,0.3019 0.1242,0.7142 0.4608,0.9002 0.3262,0.1804 -0.4103,0.4755 -0.5019,0.521 -0.2443,0.1216 -0.1354,0.2476 -0.2418,0.4021 -0.0809,0.1173 -0.2886,0.2696 -0.3969,0.393 0.195,0.3859 1.0953,0.3036 1.4964,0.4021 0.462,0.1135 1.0207,0.4636 1.428,0.7174 0.4313,0.2686 0.3216,0.2554 0.4471,-0.1782 0.1077,-0.2973 0.3373,-0.3442 0.5931,-0.1737 0.3044,0.2029 0.2736,-0.001 0.4288,-0.1919 0.1198,-0.1472 0.2606,0.0891 0.3787,0.1417 0.5001,0.2225 0.8408,0.6953 1.3048,0.8499 0,0.3684 -0.4595,0.3575 -0.1871,0.6946 0.2719,0.3363 0.0073,0.3177 -0.2783,0.4615 -0.2624,0.132 -0.1992,0.3079 -0.3649,0.4615 -0.0867,0.3157 -0.1858,1.0337 0.2144,1.0556 0.3901,0.0214 0.3611,0.5536 0.7938,0.6946 0.2664,0.0867 -0.4049,0.2346 -0.4699,0.2513 -0.3605,0.0932 0.0721,0.4844 -0.4653,0.4844 -0.4687,0 -1.194,-0.1042 -1.6424,-0.2422 -0.2575,-0.0793 -0.4135,-0.3639 -0.657,-0.4113 -0.3425,-0.0666 -0.4706,-0.1354 -0.3878,-0.5392 0.0579,-0.2821 -0.5002,-0.3801 -0.7299,-0.5529 -0.1476,-0.1139 -0.49,-0.4837 -0.6433,-0.5209 -0.1441,-0.035 -0.6516,-0.2524 -0.7117,-0.1965 -0.3925,0.3658 1.1292,0.4103 0.3194,0.8179 -0.3052,0.1537 -0.2973,0.4374 -0.5338,0.0549 -0.0942,-0.1523 -0.0137,-0.2562 -0.0137,-0.425 0,-0.1826 -0.3948,-0.2094 -0.5201,-0.2833 -0.3847,-0.2268 -0.2,-0.2034 -0.3604,-0.5301 -0.045,-0.0916 -0.2987,-0.0048 -0.3696,-0.0365 -0.1078,-0.0481 -0.3557,-0.7887 -0.26,-0.8682 -0.129,-0.301 -0.0364,-0.5505 -0.0912,-0.8454 0.027,-0.3368 0.0516,-0.244 -0.1917,-0.4615 -0.0933,-0.0833 -0.0847,-0.3734 -0.0136,-0.4661 -0.1243,-0.2054 -0.2724,-0.084 -0.324,-0.3565 -0.0252,-0.133 -0.0423,-0.4141 -0.1049,-0.5163 -0.0518,-0.0844 -0.3428,0.0453 -0.4106,0.0822 -0.1128,0.0613 -0.4456,0.0452 -0.4836,0.0731 -0.0167,-0.0124 -0.0596,0.0021 -0.073,0.0046 -0.3006,0 -1.0629,-0.7185 -1.2637,-0.9413 -0.4331,-0.4803 -0.425,0.2387 -0.8303,0.4889l-0.6661 0.4113c-0.1618,0.0999 -0.2425,0.2778 -0.4562,0.361 -0.2233,0.087 -0.4838,-0.0257 -0.7254,0.0137 -0.3085,0.0502 -0.1589,0.2307 -0.2281,0.4478 -0.1964,0 -0.9353,-0.006 -0.9353,0.2239 0,0.3437 -0.2021,1.0047 -0.479,1.2155 -0.1702,0.1328 -0.3253,-0.0688 -0.4881,0.1508 -0.1069,0.1441 -0.1126,0.3863 -0.1552,0.5575 -0.058,0.2334 -0.3551,0.7312 -0.1186,0.8774 0.1013,0.0627 0.3421,0.1505 0.4608,0.1599 0.1819,0.0143 0.5813,-0.0858 0.6113,0.0731 0.0145,0.0765 -0.0249,0.4476 0.0593,0.4752 0,0.0228 0.0522,0.0729 0.0685,0.0914l0.4115 0.3516c-0.0546,0.0526 -0.0909,0.1081 -0.1059,0.1693 -0.1008,0.4107 -0.0191,0.8834 -0.333,1.1973 -0.1559,0.1559 0.1083,0.4665 -0.0593,0.6077 -0.3681,0.3103 -0.4812,0.8112 -0.9261,0.9139 -0.5162,0.1192 -0.5373,0.3178 -0.803,0.7403 -0.4392,0.6984 -0.5109,1.4035 -1.5192,1.3572 -0.6114,-0.028 -0.6992,-0.2005 -0.9717,-0.6763 -0.1273,-0.2223 -0.0162,-0.5205 -0.1323,-0.7494 -0.1624,-0.3203 -0.3246,-0.2852 -0.5794,-0.489 -0.6431,-0.5145 -0.8711,0.8161 -1.428,-0.0091 -0.189,-0.2801 -0.4231,-0.8321 -0.844,-0.7768 -0.6546,0.086 -0.8833,0.3333 -1.1816,0.8819 -0.2349,0.4321 -0.6652,0.3678 -0.9261,0.1599 -0.4982,-0.397 -1.1082,0.6053 -1.3413,0.7631 -0.5551,0.3759 -0.9534,-0.6031 -1.4052,-0.1188 -0.3706,0.3972 -0.1373,0.4708 -0.7162,0.7129 -0.6571,0.2749 -0.8511,0.2045 -1.5786,0.1919 -0.25,-0.0043 -0.3456,0.2908 -0.5611,0.3747 -0.1778,0.0692 -0.392,-0.0274 -0.5703,-0.0274 -0.5863,0 -0.4283,0.6009 -0.7026,0.9413 -0.2076,0.2577 -0.5645,0.3107 -0.8759,0.3107 -0.1832,0 -0.9142,-0.106 -1.0721,-0.1279 -0.3445,-0.0479 -0.6956,0.0145 -1.0433,0.0217 -0.3254,0.1871 -0.4132,0.5652 -0.9413,0.5906 -0.4192,0.0201 -0.6429,0.0094 -0.8166,0.4432 -0.1518,0.3788 -0.3397,0.4218 -0.5657,0.6992 -0.2251,0.2765 -0.0555,0.5449 -0.1597,0.8362 -0.1127,0.3154 0.5008,0.575 0.3467,0.818 -0.0993,0.1568 -0.4288,-0.0657 -0.4242,0.1347 -0.0518,0.2415 -0.1486,0.4841 -0.1643,0.738 -0.0331,0.5337 0.0188,1.0694 0.0228,1.604 0.0035,0.4719 0.5931,0.5993 0.5931,1.1561 0,0.5469 -0.1169,1.0761 -0.2007,1.6039 -0.0473,0.2982 0.0324,0.7451 -0.292,0.9413 -0.3672,0.2221 -1.002,0.4432 -1.4325,0.4432 -0.4482,0 -0.5083,-0.4086 -0.844,-0.5666 -0.2426,-0.1142 -0.4458,0.1645 -0.6889,0.1645 -1.08,0 -1.8689,-1.0381 -2.7739,0.1737 -0.24,0.3213 -0.4565,0.2411 -0.7846,0.3244 -0.596,0.1513 -1.7367,0.4075 -1.3961,1.2246 0.1344,0.3227 0.6595,1.3453 0.2509,1.6177 -0.2188,0.1458 -0.6449,0.5074 -0.8212,0.2056 -0.2142,-0.3668 -0.1763,-1.285 -0.6523,-1.4668 -0.28,-0.1069 -0.6925,0.0425 -0.7437,0.3655 -0.0452,0.2853 0.1242,0.571 0.1186,0.8454 -0.012,0.5871 0.1607,0.9346 -0.3558,1.3526 -0.3397,0.2749 -1.0221,0.9552 -1.4417,0.987 -0.2092,0.0158 -0.9032,0.1542 -1.0173,0.0685 -0.1896,-0.1424 -0.2252,-0.2589 -0.4882,-0.3016 -0.322,-0.0523 -0.4325,-0.0115 -0.6752,-0.2696 -0.1893,-0.2013 -0.329,-0.5149 -0.5657,-0.6397 -0.3264,-0.1722 -0.4466,-0.6197 -0.803,-0.7083 -0.3858,-0.0959 -0.7218,-0.0406 -0.9671,0.2879 -0.734,0.9828 -1.0754,0.8391 -2.1032,0.4295 -0.2635,-0.105 -1.18,-0.3789 -1.4325,-0.3884 -0.0102,-0.0003 -0.0178,-0.0092 -0.0333,-0.014l-0.7924 -0.0408c-0.1202,0 -0.2408,-0.0096 -0.3605,0 -0.3104,0.025 -0.4678,0.3656 -0.7528,0.3656 -0.219,0 -0.3355,0.4189 -0.6067,0.4935 -0.1619,0.0445 -0.373,-0.0266 -0.5134,0.0321 -0.1758,0.0736 -0.3468,0.1585 -0.5201,0.2377 -0.1307,0.1307 -0.1169,0.4213 -0.2919,0.4934 -0.1487,0.0612 -0.3625,-0.024 -0.4927,-0.1051 -0.4474,-0.2786 -0.8303,-0.3197 -0.8303,0.3244 0,0.2965 -0.0464,0.5518 -0.0913,0.8408 -0.0519,0.3347 -0.1277,0.7623 -0.2737,1.0646 -0.4038,0.5231 -1.2181,0.3119 -1.5557,0.7997 -0.1711,0.2474 0.0581,1.1433 -0.2417,1.2474 -0.2481,0.0862 -0.616,0.3135 -0.8668,0.2102 -0.1097,-0.0452 -0.3616,-0.0978 -0.4175,0.0412l-0.1665 0.2832c0,0.2745 -0.576,0.0445 -0.7071,-0.0365 -0.3127,-0.1935 -0.5283,0.0217 -0.6889,-0.5072 -0.0739,-0.2437 -0.3009,-0.2705 -0.4151,-0.4661 -0.0714,-0.1222 -0.0481,-0.2997 -0.0639,-0.4387 -0.0267,-0.2355 -0.3008,-0.1457 -0.4471,-0.2056 -0.2943,-0.1207 -0.5048,0.9211 -0.6907,1.1125 -0.1833,-0.1414 -0.3539,-0.3084 -0.5046,-0.4591 -0.4505,-0.4505 -0.9787,0.0009 -1.4826,-0.2421 -0.2769,-0.1335 -0.5676,-0.4138 -0.8668,-0.4707 -0.5507,-0.1046 -0.6332,0.4464 -1.063,0.5849 -0.4913,0.1583 -1.1342,0.2293 -1.6332,0.1828 -0.4202,-0.0391 -0.4927,-0.4022 -0.9352,-0.2468 -0.3449,0.1211 -0.6286,-0.3405 -1.1086,-0.1188 -1.0186,0.4705 -1.6945,-0.1303 -2.4864,-0.7356 -0.2195,-0.1677 -0.5082,0.0651 -0.7345,0.0822 -0.2879,0.0218 -0.4178,-0.2095 -0.7664,-0.1234 -0.4421,0.1093 -0.8356,-0.1428 -1.2669,-0.2889l0 0c-0.1623,-0.0549 -0.33,-0.0949 -0.5077,-0.0949 -0.6798,0 -1.0561,-0.3884 -1.7108,-0.3884 -0.4048,0 -0.8413,0.2938 -1.2181,0.1782 -0.1674,-0.0513 -0.26,-0.2145 -0.4197,-0.2604 -0.2408,-0.0692 -0.4152,0.1177 -0.6401,0.0731 -0.6567,-0.1303 -1.3113,-0.3057 -1.98,-0.3382 -0.6549,-0.0319 -1.3079,0.0976 -1.9617,0.1463 -0.6096,0.0454 -0.8751,0.5046 -1.323,0.53 -0.9893,0.0562 -1.1166,0.2603 -1.7701,1.0235 -0.4543,0.5304 -0.6749,1.2604 -1.0624,1.7848l0.4769 0.2213c0.4787,0.1164 0.1729,0.3456 0.2737,0.7448 0.0521,0.2062 -0.0952,0.5218 -0.1688,0.7038 -0.0755,0.1869 -0.3283,0.8852 -0.2144,1.0555 0.1021,0.1528 0.4637,0.0479 0.6387,0.1645 0.2071,0.1381 0.2258,0.4159 0.2008,0.6489 0.126,0.656 0.5505,0.5032 0.9763,0.8545 0.1833,0.1511 0.1956,0.7337 0.1414,0.9505 -0.3938,0.0952 -0.5693,-0.0832 -0.8988,-0.3884 -0.4116,-0.3814 -0.2785,0.0482 -0.6067,0.1827 -0.4869,0.1997 -0.5338,-0.1013 -0.5338,0.5347 0,0.3094 -0.1776,0.5145 -0.2783,0.7996 -0.1067,0.3017 0.0832,0.6759 -0.0547,1.0053 0.0708,0.2425 0.3696,1.2975 -0.0959,1.1836 -0.3073,-0.0751 -0.5276,-0.0329 -0.8303,-0.0549 -0.279,-0.0203 -0.2828,-0.0189 -0.2828,0.2651 0,0.2525 0.0146,0.3712 0.2783,0.4478 0.424,0.1233 0.2883,0.3842 0.5201,0.6945 0.2655,0.3556 0.5099,0.3929 0.6569,0.8728 0.0268,0.2758 -0.1229,0.4348 0.0913,0.6718 0.3935,0.4351 -0.0224,0.8033 0.3011,1.1286 0.0866,0.0872 0.3055,0.2522 0.3512,0.3565 0.0587,0.1337 0.1658,0.838 0.4791,0.498 0.1706,-0.1853 0.2974,-0.155 0.552,-0.0914 0.3528,0.0881 0.1459,0.7067 0.3787,0.9551 0.3129,0.3337 0.5267,-0.072 0.7938,0.3655 -0.1025,0.3542 -0.0032,0.4897 0.3239,0.5987 0,0.2058 -0.0493,0.3047 -0.2737,0.2467 -0.2101,-0.0542 -0.148,0.2396 -0.251,0.2788 -0.0912,0.0348 -0.2028,-0.0055 -0.3056,0.0456 -0.1045,0.0518 -0.154,0.2222 -0.1278,0.3336 0.0171,0.0731 0.5504,0.2104 0.6798,0.361 0.3234,0.3767 0.5446,0.6443 0.4608,1.1835 -0.1182,0.7613 -0.2164,0.3198 -0.7391,0.6443 0.1175,0.2024 0.5001,0.415 0.4882,0.6078 -0.0378,0.6136 -0.6798,0.5989 -0.6798,1.1881 0,0.1951 -0.1149,0.3784 -0.1506,0.5666 -0.0477,0.252 0.058,0.8362 -0.3284,0.8362 -0.4554,0 -0.3009,-0.0184 -0.4745,0.3519 -0.1369,0.2922 -0.5471,0.2385 -0.8303,0.2193 -0.6106,-0.0414 -0.2226,-0.2578 -0.3331,-0.5895 -0.0998,0 -0.285,-0.1051 -0.4288,-0.1051 -0.1531,0.1107 -0.8967,0.1192 -1.1177,0.1645 -0.2983,0.0613 -0.4197,0.2554 -0.7346,0.0686 -0.375,-0.2223 -0.7161,-0.2216 -1.0721,-0.393 -0.1966,-0.0947 -0.3247,0.156 -0.5383,0.0457 -0.1698,-0.0878 -0.5174,-0.1717 -0.7117,-0.1005 -0.2669,-0.0604 -0.2183,-0.5058 -0.4608,-0.6398 -0.1294,-0.0716 -0.4551,-0.1677 -0.5383,-0.2421 -0.1968,-0.1758 -0.0381,-0.3199 -0.3741,-0.3199 -0.2779,0 -0.3856,-0.4508 -0.7574,-0.3564 -0.6814,0.1732 -0.5419,1.1494 -0.3604,1.6267 0.1485,0.3908 0.0716,0.44 -0.1049,0.7768 -0.1573,0.2999 -0.4836,0.1122 -0.4836,0.5392 0.2215,0.3083 0.0958,0.2232 0.4334,0.3976 0.3654,0.1889 0.9827,0.3376 1.3732,0.2102 0.3967,-0.1293 0.6479,-0.3104 0.6479,0.2376 0,0.4138 0.2386,1.3502 -0.1551,1.6359 -0.2888,0.2095 -0.1225,0.4387 0.0136,0.6809 0.1675,0.2983 0.0119,0.4663 -0.2235,0.7174 -0.0822,0.2841 0.0766,0.4084 0.2144,0.6077 0.1387,0.2008 0.0086,0.1915 -0.1095,0.3245 -0.0905,0.1021 0.0156,0.257 -0.0182,0.3793 -0.0468,0.1698 -1.4462,0.0612 -1.4462,0.2878 0,0.0986 0.1567,0.2782 0.1825,0.4022 0.0568,0.273 -0.0421,0.4847 -0.0776,0.7494 -0.0396,0.2946 0.1049,0.5083 0.1049,0.7905 -0.1078,0.3239 -0.1747,0.6169 -0.6113,0.6169 -0.0884,0 0.0889,0.6057 0.0958,0.7631 0.013,0.2984 -0.1142,0.3925 -0.1916,0.6443 -0.0459,0.1492 0.0035,0.2845 -0.032,0.425 -0.0478,0.1897 -0.307,0.3127 -0.1323,0.5483 0.1691,0.2282 0.3035,0.2678 0.3422,0.5758 0.3951,0.4429 0.3298,1.0194 1.0493,1.1698 0.4687,0.098 0.7884,0.1455 1.0356,0.5895 0.1257,0.2257 0.1541,0.5384 0.3331,0.7174 0.0318,0.0318 0.9252,-0.3222 1.063,-0.425 0.477,-0.3556 0.4364,-0.2988 1.0128,-0.0091 0.2222,0.1956 0.6192,0.2825 0.5018,0.6626 -0.0721,0.2338 -0.2884,0.2519 -0.4608,0.3381 -0.255,0.1274 -0.0593,0.8045 -0.0593,1.0464 0,0.123 0.0326,0.3193 -0.1003,0.3656 -0.1829,0.0636 -0.2801,-0.1686 -0.4289,-0.1874 -0.0661,0.0064 -0.3274,-0.0941 -0.3787,-0.1325 -0.096,0.0736 -0.0135,0.233 -0.1733,0.2742 -0.1868,0.0483 -0.3528,0.1231 -0.5064,0.2605 -0.0092,0.0082 -0.0129,0.4141 -0.0548,0.5255 -0.1373,0.3643 0.1172,0.7159 0.3194,1.0098 0.3158,0.4593 0.4761,0.419 0.99,0.5484 0.3093,-0.0201 1.0623,0.6159 0.5338,0.8316 -0.7043,0.2873 -0.7095,-0.0153 -0.4015,0.6398 0.3807,0.81 1.4166,0.8027 2.1761,0.5712 0.7618,-0.2323 0.972,0.116 1.1725,0.7448 0.2884,-0.2163 0.8129,0.2424 1.0676,-0.2696 0.0819,-0.1646 0.0988,-0.6602 0.0502,-0.8362 -0.0476,-0.1728 -0.1487,-0.9187 0.0365,-1.0465 0.5258,-0.3631 -0.0234,-0.8185 0.406,-1.0784 0.4846,-0.0616 0.3911,0.0509 0.8075,0.1188 0.606,0.0987 0.7868,0.3698 1.4234,0.3976 0.3198,0.014 0.4782,0.0519 0.73,-0.1828 0.1487,-0.1385 0.422,-0.3546 0.6295,-0.3016 0.1518,0.6075 -0.21,1.7431 0.7346,1.5628 0.3505,-0.0668 0.7117,0.1358 1.0675,0.1599 0.3948,0.0268 0.2933,0.3871 0.3285,0.6672 -0.0777,0.3024 0.2792,0.4329 0.4881,0.562 0.3135,0.1936 -0.1101,0.9755 0.4152,0.8134 0.1791,-0.0553 0.8245,-0.0259 0.5657,-0.3473 -0.1714,-0.213 -0.2316,-0.4459 -0.2463,-0.7311 -0.0251,-0.4875 -0.3196,-0.4676 -0.6935,-0.562 -0.5041,-0.1274 -0.0046,-0.5943 -0.0046,-0.8317 0.0509,-0.1316 -0.112,-0.7109 -0.0273,-0.7311 0.0022,-0.0092 0.3131,0.0588 0.4014,0.032 0.3894,-0.1181 0.5068,0.1789 0.9216,0.2787 0.0707,0.017 0.2617,0.626 0.2874,0.7311 0.0625,0.2559 0.2767,0.2254 0.4243,0.0686 0.3143,-0.3342 0.4189,-0.0794 0.7528,0.0685 0.3195,0.1414 0.3148,0.4333 0.3148,0.7494 -0.0069,0.215 -0.1009,0.619 0.0136,0.8043 0.1236,0.2002 0.251,0.1284 0.251,0.4158 0,0.1527 0.2669,0.2496 0.3878,0.3061 0.166,0.0777 0.2556,0.6343 0.1323,0.7586 -0.1164,0.1174 -1.1211,-0.1899 -1.3094,-0.2788 -0.2593,-0.1223 -0.4365,-0.0731 -0.7117,-0.0731 -0.2129,0 -0.4576,-0.1773 -0.6798,-0.1051 -0.0148,0.0043 -0.046,0.0052 -0.0501,0.0183 -0.6132,0 -0.6837,0.4192 -1.0767,0.8408 -0.2323,0.2493 -0.4623,0.3175 -0.7847,0.3839 -0.1687,0.0348 -0.1916,0.3802 -0.1916,0.562 0.1486,0.051 0.3022,-0.0451 0.4516,-0.1325 0.1349,-0.0788 0.8104,-0.2313 0.9033,-0.1097 0.1375,0.1797 -0.0914,0.3672 -0.2144,0.425 -0.1775,0.0836 -0.1703,0.2612 -0.1779,0.4295 -0.0151,0.3302 -0.4584,0.3433 -0.4289,0.5621 0.0243,0.181 -0.4709,0.3457 -0.6158,0.4112 -0.3924,0.2028 -0.4254,0.6975 -0.0092,0.9185 0.4027,0.2139 0.7542,0.2146 1.1132,0.329 0,0.1677 -0.4006,0.873 0,0.9002 0.2193,0.0148 1.3684,-0.4196 1.3322,0.2422 -0.0359,0.6559 -1.2337,0.3786 -0.4928,1.1195 0.0905,0.0518 0.4264,0.3379 0.3559,0.4433 -0.1556,0.2329 -0.4672,0.5575 -0.771,0.5575 -0.2421,0 -0.0198,-0.366 -0.3011,-0.4387 -0.2233,-0.0576 -0.1924,-0.1689 -0.4334,0.0046 -0.0943,0.0678 -0.2612,0.1117 -0.3422,0 -0.0981,-0.1351 -0.3042,-0.096 -0.4243,-0.3016 -0.1236,-0.2118 0.0685,-0.4378 0.0685,-0.6535 0.1177,-0.3053 -0.124,-0.4017 0.0912,-0.7128 0.5231,-0.7559 -0.3473,-0.4731 -0.4608,-0.8637 -0.1029,-0.3539 -0.2197,-0.2894 -0.4471,-0.5437 -0.1137,-0.1273 -0.1834,-0.4164 -0.4197,-0.16 -0.2529,0.2746 -0.4712,0.3942 -0.698,0.0366 -0.2257,-0.3561 -0.6387,0.1954 -0.8486,0.2467 -0.0996,0.0322 -0.5486,0.048 -0.6797,0.0503l-0.4928 0.0092c-0.1426,0.0026 -0.3114,-0.1747 -0.406,-0.1508 -0.1027,0.5049 -0.1827,0.3203 -0.625,0.4569 -0.5962,0.184 -0.3989,-1.0967 -0.5475,-1.3663 -0.0953,-0.1728 -0.5595,-0.0491 -0.7162,-0.0411 -0.4453,0.023 -0.6922,-0.0818 -1.0904,-0.2605 -0.2075,0.0405 -0.6357,0.042 -0.8212,-0.0228 -0.3547,-0.1238 0.0046,-0.3579 0.0046,-0.5621 0,-0.1896 -0.1017,-0.2465 -0.2418,-0.3473 -0.331,-0.238 0.0228,-1.5121 0.1642,-1.8324 0.0882,-0.0619 0.1004,-0.2092 0.1004,-0.3107 -0.1605,-0.0511 -0.5692,-0.0674 -0.7802,-0.0777 -0.2224,-0.0108 -0.5181,0.0859 -0.6159,-0.1736 -0.065,-0.1728 -0.2509,-0.2534 -0.3877,-0.3519 -0.1683,-0.121 -0.4205,0.7449 -0.7984,0.7449 -0.1991,0 -0.6899,-0.2782 -0.6707,0.0959 0.0085,0.1658 -0.1089,0.4889 0.0046,0.6032 0.1178,0.1188 0.8599,0.2772 1.0356,0.3062 0.5048,0.0836 0.3622,0.4855 0.4699,0.8773 0.404,0.3616 0.8991,0.1682 0.7938,0.8637 -0.0325,0.2148 -0.9247,0.2239 -1.1451,0.2239 -0.0673,0.2111 -0.2284,0.5072 0.0365,0.6808 0.209,0.1371 0.2218,0.3407 0.4562,0.4387 0.1699,0.0711 0.4022,0.0399 0.5475,0.1737 0.2367,0.2182 0.4072,0.29 0.6752,0.4569 0.266,0.1658 0.2057,0.319 0.0183,0.5347 -0.018,0.1386 -0.1825,0.2222 -0.1825,0.3427 0.1522,0.0372 0.5046,0.1139 0.625,0.201 0.1042,0.0755 0.1452,0.2575 0.2737,0.3336 0.3202,0.1894 0.4174,0.2221 0.438,0.5986 0.0369,0.6757 -0.371,0.2207 -0.5292,0.7723 -0.0825,0.288 -0.2026,0.5304 -0.3832,0.7722 -0.1838,0.2462 -0.4881,0.2955 -0.6388,0.5666 -0.0046,0.0113 -0.0228,0.0449 -0.0228,0.064 -0.4194,0.1072 -0.0541,0.6059 -0.1186,0.8545 -0.0756,0.2909 0.0181,1.3455 0.2008,1.5994 0.3006,0.418 0.4015,-0.3413 0.4835,-0.5255 0.2193,-0.493 0.2437,-0.5142 0.6616,-0.1554 0.0884,0.076 0.2154,0.104 0.2463,0.2285 0.0632,0.254 -0.0246,0.3325 0.2646,0.4021 0.5515,0.1327 0.302,0.0744 0.4927,-0.3656 0.1128,-0.2605 0.6373,0.0092 0.8988,0.0092 0.2613,0.0213 0.5113,0.0008 0.771,0.0183 0.1159,0.0078 0.4175,0.1896 0.4197,0.1827 0.0475,0 0.3782,-0.3863 0.3833,-0.4523 0.0041,-0.0524 -0.2044,-0.1408 -0.2601,-0.1965 -0.1535,-0.1535 -0.1974,-0.2967 -0.3193,-0.4661 -0.2023,-0.2813 -0.0721,-0.3562 -0.0274,-0.6672l0 0c0.3901,-0.5088 -0.8628,-0.5492 -0.7847,-0.8682 0.1109,-0.4535 1.2492,0.227 0.8668,-0.4752 -0.5651,-1.038 0.7658,-2.0225 0.6022,-0.5849 -0.0174,0.1528 -0.1686,0.8931 0.1916,0.7996 0.3468,-0.0901 0.1434,-0.5686 0.5338,-0.1782 0.2574,0.2574 0.142,-0.44 0.1506,-0.5392 0.0271,-0.3132 0.3542,-0.3329 0.5018,-0.0959 0.1169,0.1876 -0.1477,0.4287 -0.0183,0.6031 0.1326,0.1789 0.303,0.7115 0.47,0.7814 0.3451,0.1443 1.3953,-0.5353 1.5055,-0.2878 0.3283,0.7378 0.1557,0.8098 1.0037,0.2056 0.3627,-0.0822 0.3922,-0.1504 0.6797,0.1371 0.1819,0.1819 0.4618,0.1279 0.7072,0.1279 0.2845,0 0.3183,0.1651 0.6295,-0.0274 0.5906,-0.3655 0.2207,0.2695 0.0685,0.4478 -0.2078,0.2432 0.0316,0.4074 0.1003,0.6306 0.1032,0.3354 0.2271,0.0255 0.3422,-0.1188 0.1249,-0.1564 0.7182,-0.0648 0.6752,0.0548 -0.1225,0.3408 -0.2372,0.3373 -0.2372,0.7586 0.3413,0.2931 0.2537,1.1741 0.1825,1.5491 -0.0991,0.5224 -0.4259,0.2476 -0.3696,0.8682 0.0213,0.2346 0.8808,0.3466 0.7847,-0.0914 -0.1186,-0.5411 0.0434,-0.6587 0.438,-0.3199 0.1734,0.149 0.6524,0.3531 0.6524,-0.064 0,-0.2538 -0.3194,-0.4162 -0.3194,-0.7082 0,-0.222 0.0077,-0.4163 -0.0365,-0.6443 -0.0628,-0.3242 0.2233,0.0364 0.3011,0.0685 0.4108,0.1693 0.2247,0.5244 0.5566,0.6991 0.187,0.0985 0.5324,-0.2221 0.698,-0.3335 0.3306,-0.2222 -0.261,-0.7353 0.4836,-0.6946 0.2458,0.0134 0.3148,0.1116 0.3148,0.3473 0,0.338 0.2796,-0.0395 0.3696,-0.0137 0.1839,-0.2605 -0.1144,-0.2941 -0.3924,-0.4524 -0.5694,-0.3241 0.1332,-0.4222 0.3513,-0.5484 0.192,-0.0804 0.2297,-0.2889 0.3832,-0.3838 0.0349,-0.0216 0.1436,0.1242 0.1962,0.1416 0.2707,0.0896 0.7824,0.0164 0.8668,0.3656 -0.3799,0.1304 -0.4792,0.4092 0.1278,0.1782 0.4982,-0.1895 0.3969,0.0084 0.3969,0.425 0,0.1907 0.2955,0.3763 0.4379,0.1782 0.2301,-0.3198 -0.403,-1.1641 0.2418,-1.645 0.1751,-0.1305 1.0372,-0.2102 1.2911,-0.2102 0.3584,0 -0.0448,-0.4518 0.1506,-0.69 0.2074,-0.2526 0.7279,-0.317 0.7664,-0.4661 0.0431,-0.1672 0.2222,-0.1194 0.3696,-0.1417 0.1385,-0.0209 -0.1489,-0.3266 0.219,-0.5209 0.0435,-0.1502 -0.0417,-0.3747 -0.219,-0.3747 -0.0453,-0.1361 -0.3563,-0.3521 -0.4334,-0.5666 -0.1044,-0.2902 0.2116,-0.5158 0.3741,-0.7814 0.062,-0.1015 0.2964,0.1858 0.5201,0.1736 0.3934,-0.0214 1.1559,-0.1511 1.5237,-0.0503 0.0778,0.0213 0.0274,0.2903 0.0685,0.3839 0.1304,0.2974 0.4217,0.3113 0.6296,0.5209 0.2178,0.2197 0.7276,-0.3496 0.8531,-0.5529 0.1826,-0.2955 0.266,-0.4932 0.3786,-0.8362 0.3466,0 0.4589,-0.1115 0.4882,0.3198 0.02,0.2957 0.3032,1.2416 -0.0593,1.4029 -0.5921,0.2633 -0.7654,0.0623 -0.9718,0.8134 0.0934,0.4794 -0.1346,0.9595 0.3787,1.0921 0.4835,0.1248 0.3425,-0.444 0.7071,-0.6443 0.1803,-0.0991 0.4976,-0.5258 0.6524,-0.3107 0.1551,0.2157 0.7743,0.1805 1.0265,0.0914 0.2244,-0.0794 -0.1908,-0.2616 -0.0456,-0.3885 0.1139,-0.0995 0.2388,-0.3474 0.2737,-0.4569 0.4721,0.3541 0.2452,0.8476 0.8942,0.6991 0.7592,-0.1736 1.0138,0.5983 0.7391,1.2155 -0.2381,0.5352 0.1978,0.3874 0.1642,0.8819 -0.0228,0.3369 -0.511,0.4212 -0.666,0.7038 -0.2485,0.2822 0.7123,0.7512 0.4607,1.2794 -0.1831,0.3843 -0.9273,0.0626 -1.1679,0.1234 -0.0254,0.1052 0.0581,0.1842 0.0502,0.2925 -0.0209,0.2877 -0.2329,0.2131 0.1232,0.498 0.2595,0.2075 0.2891,0.7629 0.6798,0.5438 0.4398,-0.2468 0.4113,-0.297 0.8941,-0.297 0.8615,0 0.3214,0.3927 0.876,0.6946 0.385,0.2097 0.9598,-0.0104 0.7573,0.7265l-0.3467 0.489c-0.0897,0.1266 0.0206,0.947 0.26,0.7265 0.1585,-0.1461 0.2728,-0.7312 0.5201,-0.6488 0.2601,0.0866 0.4412,-0.2061 0.6205,-0.1508 0.1389,0.0429 0.1881,0.2151 0.3604,0.2467 0.741,0.1363 1.759,-0.0183 2.5229,-0.0183 0.3682,0 0.8024,-0.306 1.1497,-0.2102 0.385,0.1063 -0.0769,1.427 -0.1688,1.6771 -0.2539,0.6914 -0.4791,1.2832 -0.4791,2.0563 0.1718,0.4433 0.3871,0.9503 0.3604,1.4394 -0.0188,0.3444 -0.3261,0.7315 -0.2463,1.051 0.2205,0.0305 0.438,-0.0363 0.6615,0.0319 0.0629,0.0191 0.5635,0.4435 0.5794,0.4753 0.0856,0.1715 -0.406,0.0755 -0.4699,0.0594 -0.0408,-0.1226 -0.2594,-0.2211 -0.3695,-0.1325 -0.1229,0.0988 0.4343,0.5749 0.5383,0.6123 0.3789,0.1362 0.7948,-0.9186 0.9854,0.064 0.1152,0.5935 0.7351,-0.5646 0.9855,0.0959 0.0456,0.4978 0.3277,0.2204 0.5794,0.4935 0.1409,0.153 0.6738,0.8303 0.885,0.5621 0.0431,-0.0547 -0.0795,-0.2651 0.0593,-0.2651 0.1426,0 0.2955,0.1232 0.4471,0.0503 0.1119,-0.0539 -0.0365,-0.2846 -0.0365,-0.4021 0.0074,-0.0024 0.0046,-0.005 0.0046,-0.0137 0.3101,-0.1033 0.1585,-0.1144 0.2418,0.1553 0.1048,0.3397 0.6332,0.487 0.4927,0.8911 -0.1021,0.294 -0.4009,0.3815 -0.3832,0.7677 0.0258,0.5605 0.1303,0.4568 -0.3559,0.7128 -0.3745,0.1973 0.1307,0.1645 0.2464,0.1645 0.2785,0 0.2306,0.1967 0.2053,0.4067 -0.0461,0.1594 -0.1041,0.2021 -0.2692,0.192 -0.0719,-0.0044 -0.5246,0.1362 -0.5246,0.1873 0,0.1921 0.1239,0.361 -0.1734,0.361 -0.0023,0.007 0.0002,0.0046 -0.0091,0.0046 -0.0616,0.1796 -0.3983,0.2654 -0.4334,0.4341 -0.034,0.1636 0.219,0.3658 0.219,0.5757 0,0.2847 -0.3577,0.3015 -0.4791,0.5621 -0.1629,0.3493 0.2316,0.4518 -0.1642,0.7997 -0.1157,0.0918 -0.3315,-0.0313 -0.4197,0.0914 -0.1984,0.2757 -0.3901,0.0962 -0.5201,0.4889 -0.0607,0.1832 -0.3513,0.1623 -0.3513,0.4158 0,0.2913 -0.0566,0.6429 0.2053,0.7951 0.3533,0.2055 0.0317,0.3579 -0.0502,0.6855 -0.2107,0.0509 -0.4307,0.18 -0.6889,0.0959 -0.3484,-0.1134 -0.2354,0.3206 -0.3695,0.4935 -0.1456,0.1339 -0.4472,0.2944 -0.4015,0.5164 0.0459,0.2224 -0.0995,0.6997 0.2783,0.5895 0.2076,-0.0606 0.4495,-0.2346 0.5839,-0.0046 0.0887,0.152 0.3694,0.1541 0.3741,0.3701l0.0092 0.4204c0.0126,0.5754 -0.2692,-0.2079 -0.2829,-0.3975 -0.0064,-0.0888 -0.2111,-0.1208 -0.292,-0.1417 -0.2009,-0.0518 -0.2645,0.4832 -0.5337,0.5941 -0.4106,0.1693 -0.3169,-0.2219 -0.5338,-0.4159 -0.1237,-0.1105 -0.3216,0.0797 -0.5155,-0.1142 -0.1123,-0.1123 -0.6212,-0.7043 -0.7619,-0.6352 -0.1379,0.0678 -0.1841,0.6767 -0.3331,0.8271 -0.1442,0.1454 -0.209,-0.1361 -0.3558,0.0457 -0.039,0.0482 -0.2937,0.4553 -0.0502,0.3747 0.429,-0.1422 0.1712,0.2468 0.0821,0.2468 -0.2612,0 -0.3969,0.05 -0.3969,0.3244 -0.2274,0.0574 -0.3511,0.1223 -0.6478,0.1462l-0.0365 0.0412c-0.1458,0 -0.4591,-0.2215 -0.5338,-0.1645 -0.1365,0.1044 -0.4242,0.1503 -0.4927,0.2878 -0.0847,0.1703 0.0232,0.3972 0.0502,0.5712 0.0907,0.5843 -0.2033,1.0821 -0.2738,1.6405l-0.1003 0.3062 0 0 0.3923 1.2612c-0.0335,0.3535 -0.0019,0.4219 -0.3513,0.6351 -0.3052,0.1861 -0.4761,1.0226 -0.4562,1.3663 0.0255,0.4414 0.5703,0.4716 0.7573,0.096 0.1504,-0.3023 0.1365,-0.7403 0.3194,-0.987 0.0531,-0.0716 0.6366,-0.0715 0.7436,-0.0549 0.6086,0.0944 1.5564,1.1066 2.0621,1.4988 0.2586,0.1388 0.592,0.2285 0.876,0.361 0.4406,0.2054 0.9223,-0.423 1.3504,-0.5392 0.203,-0.055 0.4741,-0.0257 0.6524,-0.1051 0.1411,-0.0627 0.0673,-0.4053 0.1232,-0.5529 0.0737,-0.384 -0.3331,-0.4093 0.2919,-0.5621 0.3231,-0.079 0.439,-0.2718 0.3468,-0.5757 -0.1343,-0.4423 0.1037,-0.2927 0.2691,-0.5027 0.1353,-0.1717 -0.0819,-0.2557 -0.1779,-0.329 -0.1137,-0.087 -0.1299,-0.3514 0.0502,-0.2787 0.5228,0.2113 0.5242,1.2759 1.0356,0.5712 0.2452,-0.338 0.0741,-0.3912 0.1004,-0.754 0.0106,-0.1456 -0.0137,-0.2436 -0.0137,-0.3838 0,-0.2322 0.2086,-0.2408 0.333,-0.3839 0.0181,-0.0188 0.0627,-0.0706 0.0913,-0.0777 0.0232,-0.0952 0.381,-0.3796 0.4608,-0.5072 0.1289,-0.2063 0.2646,-0.4362 0.2646,-0.6854 0.0404,-0.0277 0.0638,-0.9194 0.0638,-1.051 0,-0.407 0.2537,-0.766 0.3787,-1.1424 0.1608,-0.1276 0.0944,-0.7626 0.3057,-0.7814 0.147,-0.0131 0.5383,0.1459 0.5383,-0.1599 0,-0.2054 -0.2051,-0.2592 -0.1871,-0.5255 0.0293,-0.4316 -0.1589,-0.5307 -0.3786,-0.8362 -0.1608,-0.2235 0.3448,-0.328 0.4973,-0.4936 0.3804,-0.4128 0.1201,-0.7507 0.8394,-0.3929 0.2039,0.1015 0.3997,0.2082 0.6342,0.1462 0.3303,-0.0872 0.1511,-0.3654 0.2418,-0.5758 0.0626,-0.117 0.2204,-0.7722 0.3284,-0.7722 0.0923,0 0.4804,0.2636 0.6342,0.3061 0.4991,0.1379 0.9648,-0.0659 1.3458,-0.393 0.3832,-0.3291 0.313,-0.4292 0.8623,-0.3198 0.3022,0.0602 0.5938,0.0697 0.885,-0.0411 0.2228,-0.0847 0.6664,-0.5262 0.844,-0.2102 0.1073,0.1911 -0.0958,0.8595 -0.0958,1.1241 0.1293,0.4017 0.5783,0.4143 0.9399,0.4935 0.5032,0.1101 0.15,-0.3479 -0.1324,-0.4478 -0.9244,-0.3268 0.4467,-1.046 0.8669,-0.9414 0.2262,0.0562 0.3467,0.2209 0.5839,0.1874 0.1459,-0.0205 1.0032,-0.5776 1.0448,-0.1508 0.0164,0.1679 -0.5093,0.5385 -0.6251,0.6946 -0.343,0.4627 1.0581,0.3326 1.3003,0.4752 0.1972,0.1162 0.1596,0.3983 0.1596,0.6032 0,0.3388 0.2994,0.4486 0.5566,0.5757 0.4004,-0.1544 0.83,-0.1309 1.209,0.0275 0.1365,0.0571 0.7036,0.0449 0.8531,0.0182 0.605,-0.1084 0.4471,-0.8648 0.5429,-1.2794 0.1428,-0.6185 0.7544,-0.9848 1.1725,-1.4029 0.1903,-0.2503 0.2238,-1.3373 0.3468,-1.3252 0.1515,0.0148 0.1044,0.4343 0.4106,0.3565 0.2369,-0.0601 0.2154,-0.4273 0.3923,-0.5575 0.1899,0.1398 0.4973,0.1147 0.4973,0.1325 0,0.3339 0.6192,0.9704 0.9489,0.786 0.2853,-0.1595 0.9975,-0.3577 1.0767,-0.6763 0.0766,-0.3077 -0.1132,-0.7366 0.2464,-0.8317 0.2756,-0.0728 0.2802,-0.3519 0.4835,-0.5072 0.2466,-0.1885 0.7663,-0.1997 1.0676,-0.2285 0.4683,-0.0447 0.2168,-0.5394 0.5657,-0.6717 0.2399,-0.1007 0.3147,-0.5073 0.0502,-0.3245 -1.2669,0.8754 -0.0108,-0.9987 -0.1369,-1.3662 -1.0413,0 -0.9089,-0.3188 -0.1003,-0.8134 0.3113,-0.1905 1.4479,-0.0274 1.8841,-0.0274 0.2405,0 0.5744,-0.1263 0.7893,-0.0869 0.1779,0.0327 0.4228,1.6085 1.2364,1.6085 0.3812,0 0.5649,-0.672 0.844,-0.5575 0.5771,0.2366 0.2526,-0.1828 0.7619,-0.1828 0.1613,-0.0153 1.1535,-0.05 1.104,0.1417 -0.0809,0.3138 -0.339,0.1478 -0.2281,0.594 0.0492,0.1977 0.4894,-0.2084 0.5748,-0.0137 0.1397,0.3182 -0.1416,0.7076 0.4289,0.3702 0.355,-0.21 0.7198,-0.1749 0.8029,0.2559l0.0411 0.0274c0.1605,-0.123 0.885,-0.5729 0.885,-0.7631 -0.3827,-0.1313 -0.8978,-0.2671 -1.25,-0.5118 -0.5226,-0.3632 -0.0612,-0.2984 0.2692,-0.5164 0.1605,-0.106 0.2526,-0.4439 0.4836,-0.3427 0.5698,0.2495 0.4674,0.2961 0.9489,-0.1325 0.2447,-0.2179 0.8825,-0.0487 1.2272,-0.1417 0.549,-0.1589 0.9539,-0.451 1.4691,-0.658 0.2385,-0.0959 0.9662,-0.1488 1.0584,-0.3427l0.3695 -0.7768c0.159,-0.3342 -0.761,-0.4449 -0.6569,-0.8637 0.0449,-0.1804 0.4159,-0.1331 0.552,-0.2056 0.229,-0.1222 0.0688,-0.3897 0.1095,-0.5895 0.0921,-0.1722 -0.1427,-0.3376 0.0182,-0.5803 0.1624,-0.2451 0.4986,-0.425 0.7802,-0.425 0.2878,0 0.7862,-0.2605 1.0219,-0.201 0.0021,0.0082 0.0009,0.007 0.0091,0.0091 0.0532,0.2105 -0.1332,0.6713 0.1004,0.8408 0.4272,0.3099 0.9103,-0.007 1.3185,-0.2239 0.4779,-0.2538 0.8941,0.0887 1.3823,0.1279 0.3259,0.0954 0.9858,-0.0765 1.323,-0.1325 0.5352,-0.0888 1.7093,-0.3835 2.1306,0.0046 0.3187,0.2937 0.5817,1.1742 1.2614,0.9254l0 0c-0.0318,-0.2271 -0.0919,-0.435 -0.2304,-0.5735 -0.1359,-0.1359 -0.3464,-0.1963 -0.4699,-0.3428 -0.2131,-0.253 -0.1866,-0.5997 -0.2463,-0.9093 0.0151,-0.2379 -0.2841,-0.713 -0.4061,-0.9322 -0.1217,-0.2184 -0.098,-0.5147 -0.2098,-0.7494 -0.3554,-0.7463 -0.8185,-1.6392 -0.844,-2.5087 0.052,-0.2709 0.0818,-0.618 0.0912,-0.8956 0.0182,-0.5394 -0.0062,-0.8309 0.178,-1.3572 0.1769,-0.5052 0.3052,-0.7543 0.26,-1.2931 -0.1169,-0.6679 -0.4557,-1.2683 -0.7619,-1.8781 -0.379,-0.7551 -0.7059,-1.4064 -0.9763,-2.2208 -0.1629,-0.636 -0.3887,-1.4393 -0.7071,-2.0061 -0.149,-0.2652 -0.3209,-0.4096 -0.3878,-0.7311 -0.0722,-0.3465 -0.0808,-0.7596 -0.1734,-1.0967 0,-0.5423 -0.1916,-1.139 -0.1916,-1.7181 0,-0.5598 -0.1845,-1.3102 0.0456,-1.837 0.2201,-0.3053 -0.1375,-0.7003 0.2601,-0.7997 0.002,-0.0084 0.0009,-0.0071 0.0091,-0.0091 0.0312,-0.1238 -0.0091,-0.4454 -0.0091,-0.594 0,-0.3711 0.3123,-0.7985 0.4014,-1.1836 0.1045,-0.4521 0.3696,-0.6409 0.3696,-1.156l0.2007 -3.4455c0.1134,-0.61 0.0444,-1.2696 0.2236,-1.8598 0.0806,-0.2658 0.2821,-1.2306 -0.1871,-1.3252 -0.1548,-0.2705 -0.3731,-0.4256 -0.4836,-0.7585 0.0285,-0.1771 -0.1822,-0.7036 -0.2053,-0.9459 -0.0437,-0.4573 -0.175,-1.1097 -0.5109,-1.4394l-0.4517 -0.4433c-0.2516,-0.2471 -0.2858,-0.4842 -0.4653,-0.7676 0.0203,-0.2361 -0.0947,-0.6616 -0.1278,-0.9185 -0.0597,-0.4623 -0.114,-0.9138 -0.114,-1.3755 0,-0.5279 -0.0041,-0.788 -0.219,-1.2977 -0.1661,-0.516 -0.3863,-0.9752 -0.4791,-1.5354 -0.1031,-0.6229 -0.2768,-1.36 -0.2189,-1.9923 0,-0.6368 -0.1313,-1.2705 0.0136,-1.8964 0.1568,-0.6777 0.4317,-1.6628 0.8669,-2.2162 0.2619,-0.4597 -0.0553,-1.4462 -0.032,-1.9786 0.0323,-0.738 0.4587,-1.0908 0.6752,-1.7501 0.1392,-0.3191 0.0541,-0.6812 0.3011,-1.0099l0.9581 -1.2749c0.2846,-0.3788 0.7312,-1.0963 1.1132,-1.3343 -0.0138,-0.2411 0.2148,-0.708 0.2372,-1.0053 0.0139,-0.1837 0.1118,-0.5658 0.2372,-0.7037 0.3302,-0.3629 0.3401,-0.3758 0.3969,-0.8728 0.0543,-0.4758 0.0514,-0.8063 0.2053,-1.2749 0.3401,-0.7021 0.5258,-1.4509 1.0448,-2.102 0.5536,-0.6943 1.137,-1.2611 1.7975,-1.869 1.4575,-1.1071 2.8351,-1.9678 4.6032,-2.5132 0.8012,-0.43 1.8715,-0.5922 2.7465,-0.8545 0.9366,-0.2807 2.2471,-0.2102 3.0795,0.3427 0.3025,0.1989 0.6456,0.559 0.7573,0.9093 0.0902,0.2831 0.2299,0.5399 -0.0365,0.7769 -0.2903,0.2584 -0.3942,0.624 -0.0958,0.9413 0.1769,0.1882 0.1822,0.2392 0.1916,0.4981 0.0071,0.1973 0.2688,0.415 0.4152,0.5346 0.5544,0.7071 1.3999,0.3228 2.1807,0.4067 0.336,0.036 1.0283,-0.1492 1.3869,-0.2102 0.3915,-0.0665 1.0243,-0.6197 1.3778,-0.8545 0.2719,-0.2723 0.5267,-0.2437 0.2737,-0.722 -0.7567,-1.4306 0.348,-2.155 1.282,-3.089 0.5364,-0.6359 1.0366,-1.457 1.7747,-1.8644 0.4091,-0.2259 0.5258,-0.2871 0.4425,-0.7905 -0.0862,-0.5203 0.0431,-0.9135 0.3695,-1.3252 0.1923,-0.2156 0.2904,-0.6138 0.4426,-0.8728l0.7573 -1.2886c0.2612,-0.4445 0.1232,-1.0699 0.2372,-1.5628 0.6822,-2.1873 1.2814,-3.2177 3.5905,-3.9252l3.0202 -0.7631c0.9824,-0.2482 2.0866,0.0572 3.0384,0.3518 0.2708,-0.1014 1.2982,0.1536 1.6469,0.1874 0.3197,0.0309 1.0155,0.0356 1.2592,0.265 0.1794,0.169 0.0753,0.5756 0.2874,0.7494 0.3329,0.273 1.1414,-0.623 1.4234,-0.8271 0.4862,-0.3517 1.2204,-0.8055 1.7747,-1.019 0.8653,-0.4059 1.7358,-0.4255 2.6369,-0.6443 0.4492,-0.1091 0.8265,-0.4466 1.2227,-0.6808 0.4086,-0.2414 0.881,-0.3768 1.282,-0.6124l2.6004 -1.4851 2.8058 -1.4257c0.5069,-0.3655 1.6203,-0.3041 1.9709,-0.9093 0.167,-0.2881 0.012,-0.8119 -0.0229,-1.1241 -0.0527,-0.4718 0.2094,-0.7604 0.3468,-1.1698 0.2391,-0.2725 1.0844,-1.2249 1.0265,-1.5811 -0.0477,-0.2941 -0.2994,-0.4269 -0.3468,-0.6808 -0.0701,-0.3747 0.1122,-0.9302 0.2601,-1.2704 0.0117,-0.0419 0.0137,-0.0533 0.0137,-0.0914 0.0888,-0.1498 -0.0228,-0.8741 -0.0228,-1.0829 0,-0.4916 0.1311,-0.9366 0.2189,-1.4166 0.1506,-0.2805 -0.0165,-1.0921 -0.0365,-1.4166 -0.0253,-0.411 -0.1345,-0.8032 -0.3649,-1.1561 -0.0589,-0.0901 -0.2524,-0.3002 -0.3559,-0.137 -0.0763,0.1205 0.3587,0.8197 0.4289,0.9778 0.3428,0.7712 0.2924,1.5716 0.0912,2.3808 -0.0679,0.0539 -0.0509,0.3094 -0.1779,0.297 -0.1453,-0.0143 -0.127,-0.0881 -0.2966,-0.0091 -0.5605,0.2614 -0.89,-0.2229 -1.2546,-0.5895 -0.4462,-0.4488 -1.0675,-0.391 -1.0675,-1.2521 0.1359,-0.3639 0.3638,-0.468 0.5246,-0.7722 0.2452,-0.4635 0.2715,-1.0514 0.4745,-1.5491 0.2336,-0.5729 0.6446,-0.9855 1.0265,-1.4531l0.0547 -0.0594c0.0742,-0.3677 1.51,-1.4277 1.8432,-1.7502l2.313 -2.239c0.1034,-0.4285 1.9137,-1.4113 2.3222,-1.6542l2.9198 -1.7364 4.8815 -2.3579c0.8257,-0.5954 2.0835,-0.8376 2.9837,-1.3618 0.3943,-0.2295 0.373,-0.839 0.8394,-1.1149 0.3856,-0.228 1.0537,-0.4 1.4873,-0.5347 0.4206,-0.3527 0.8426,-0.5025 1.3732,-0.594 0.5363,-0.0924 0.6804,-0.1483 1.0174,-0.5666 0.3379,-0.4192 1.2133,-0.3041 1.4781,-0.9002 0.0985,-0.2216 0.0048,-0.58 0.1643,-0.7403 0.2158,-0.2171 0.5353,-0.3263 0.7756,-0.5666 0.1514,-0.1459 0.4042,-0.1705 0.5748,-0.3519 0.2487,-0.2643 0.042,-0.6367 0.4653,-0.9779 0.2241,-0.1805 0.5396,-0.2336 0.7756,-0.3975 0.3741,-0.26 0.0642,-0.8445 0.5155,-1.1195 0.537,-0.3274 0.7093,-0.2722 0.9353,-0.8957 0.1338,-0.3202 0.7506,-0.4197 0.6022,-0.9002 -0.3302,-1.0693 0.2696,-0.7142 0.8303,-1.4257 0.2194,-0.2785 0.0862,-0.7347 0.4334,-0.9504l1.1771 -0.7312c0.3799,-0.2447 0.8246,-0.4343 1.0356,-0.8728 0.1296,-0.2696 0.0927,-0.6796 0.2509,-0.8956 0.2308,-0.3153 0.9062,-0.7022 1.25,-0.9139 0.5866,-0.3614 1.1064,-0.7042 1.6196,-1.1698 0.6868,-0.5406 1.4519,-0.9989 2.2401,-1.3937 0.9186,-0.46 2.0792,-0.729 2.9015,-1.3343 0.0373,-0.0229 0.036,-0.0178 0.0548,-0.0366 0.2066,-0.0285 0.7296,-0.4749 1.0036,-0.5894l1.8158 -0.7586 2.1351 -1.1469c0.6533,-0.4212 1.8459,-0.794 1.8842,-1.6679 0.0369,-0.844 0.6301,-1.513 1.2363,-2.0426l1.8751 -1.7776 0.9581 -0.8134c0.3082,-0.2617 0.8069,-0.8086 1.1496,-0.9915 0.3483,-0.2658 0.6528,-0.3011 0.6752,-0.8134 0.0342,-0.7842 0.4608,-1.1478 0.9992,-1.6862 0.2064,-0.2064 0.443,-0.4165 0.6888,-0.562 0.3056,-0.1808 0.2871,-0.5236 0.4471,-0.7814 0.2569,-0.191 0.544,-0.7314 0.7528,-1.0053 0.3917,-0.5141 0.8865,-1.0185 1.4006,-1.4075 0.6675,-0.5052 0.6301,-0.7724 0.9581,-1.5033 0.1981,-0.1575 0.4575,-0.6384 0.5064,-0.8957 0.264,-1.3876 1.8618,-1.9543 2.573,-3.025 0.0658,-0.2244 0.3802,-0.5295 0.5156,-0.7357l1.9024 -2.8971 0.3418 -0.5688 0 0c-0.2328,0.0214 -0.7431,0.0404 -0.9577,0.1301 -0.2234,0.0934 -0.342,0.3574 -0.5657,0.4296 -0.2419,0.078 -0.73,-0.6283 -0.73,-0.8454 0,-0.2081 0.0455,-0.4433 -0.0499,-0.5881 -0.2537,-0.3849 -0.8405,-0.4376 -0.9355,0.0535 -0.0316,0.1634 0.0255,0.6672 0.0776,0.827 0.0477,0.1466 0.2203,0.2846 -0.0365,0.3885 -0.0697,0.0281 -0.6362,0.0537 -0.6935,0.0319 -0.189,-0.0722 -0.6738,-0.5693 -0.771,-0.0685 -0.0605,0.3122 0.2277,0.2784 0.2601,0.4067 0.0583,0.0149 -0.0493,0.3225 0.1961,0.3838 0.2201,0.0549 0.2715,0.026 0.4289,-0.1325 0.1993,-0.2009 0.5943,0.3105 0.5474,0.5027 -0.0452,0.1848 -0.4229,0.4187 -0.6022,0.4478 -0.1506,0.0245 -0.2975,-0.0286 -0.4516,0.0091 -0.2276,0.0556 -0.2983,0.206 -0.4836,0.3016 -0.1319,0.1519 -0.2049,0.6658 -0.5338,0.5027 -0.1793,-0.0888 -0.2829,-0.516 -0.2829,-0.7037 0,-0.168 0.2252,-0.4659 0.2053,-0.5438 -0.5361,0 -0.3075,0.0914 -0.6706,0.329 -0.3293,0.2156 -0.7179,0.0953 -1.0447,0.3016 -0.4726,0.2982 -0.9732,1.4101 -1.4052,1.4394 -0.3468,0.0236 -0.7583,-0.4827 -0.9398,-0.7449 -0.1674,-0.242 -0.2577,0.1603 -0.2007,0.2879 0.1482,0.3319 0.9143,1.0085 0.2691,1.2795 -0.1448,0.2038 -0.3284,0.2842 -0.2555,0.5712 0.0389,0.153 0.2305,0.2392 0.2464,0.4067 0.0554,0.5824 -0.5312,0.3925 -0.5429,0.5118 -0.0203,0.2076 0.3072,0.3505 -0.0821,0.4478 -0.1192,0.0297 -0.553,-0.1915 -0.6889,-0.2513 -0.0225,-0.0099 -0.139,-0.0807 -0.1506,-0.0457 -0.0581,0 -0.0078,0.1183 0.0183,0.1371 0.0519,0.0372 0.1027,0.0623 0.1551,0.0913 0.0897,0.0495 0.2065,0.0831 0.2464,0.1645 0.1768,0.3597 -0.4113,0.2039 -0.5384,0.1234 -0.1969,-0.1249 -0.4032,0.0063 -0.1323,0.096 0.2334,0.0774 0.4143,0.2306 0.146,0.4295 -0.4709,0.3493 -0.3841,-0.0319 -0.7756,-0.1416 -0.1964,-0.0551 -0.0493,0.4036 -0.0273,0.4798 0.0593,0.1613 0.2089,0.3634 0.2189,0.5255 0.0192,0.3123 -0.1473,0.3082 -0.2372,0.5437 -0.0465,0.1217 -0.0029,0.2499 -0.1049,0.3519 -0.1198,0.1198 -0.4529,0.2192 -0.6159,0.2879 -0.2507,0.1058 -0.3799,-0.2609 -0.6296,-0.1737 -0.405,0.1413 -0.5807,0.5933 -1.0858,0.3976 -0.303,-0.1345 -0.3218,-0.4182 -0.7026,-0.3244 -0.3749,0.0924 -0.608,0.2748 -1.0128,0.297 -0.9278,0.0511 -0.6062,0.7094 -1.5603,0.0228 -0.2315,-0.1665 -0.8731,0.6382 -1.0903,0.7723 -0.1624,0.1004 -0.4731,-0.8083 -0.6022,-0.9825 -0.4098,-0.5525 -1.2052,-0.5763 -1.8021,-0.4615l-0.7268 0.3083c-0.0521,-0.0517 -0.1439,-0.0748 -0.3179,-0.0478 -0.4458,0.0692 -0.2064,-0.0825 -0.5064,-0.2788 -0.1358,-0.0889 -0.2724,-0.0786 -0.4061,-0.1416 -0.2259,-0.1066 -0.5026,-0.7056 -0.6706,-0.9322 -0.2822,-0.3806 -0.7715,-0.452 -0.8623,-0.9048 -0.0645,-0.3216 0.0464,-0.5409 0.105,-0.8499 0.0791,-0.417 -0.2701,-0.3286 -0.5156,-0.3153 -0.1954,0.0106 -0.1157,-0.3891 -0.1551,-0.5118 -0.0247,-0.0772 -0.114,-0.1573 -0.114,-0.2376 0,-0.122 0.0438,-0.2306 0.0501,-0.3473 0.0191,-0.3504 -0.2846,-0.6413 -0.3376,-0.9322 -0.0478,-0.2624 -0.3746,-0.3159 -0.356,-0.5575l-0.5883 0.1691c-0.1917,0.1907 -0.9208,0.484 -0.7984,0.7631 0.1269,0.2891 0.338,0.575 0.625,0.7037 0.292,0.131 0.3151,0.2029 0.3878,0.5301 0.0474,0.2131 0.1951,0.7596 -0.1734,0.7037 -0.2617,-0.0396 -0.7378,-0.5503 -0.885,-0.7631 -0.0962,-0.139 -0.2645,-0.6278 -0.2966,-0.7951 -0.0452,-0.1695 -0.069,-0.3565 -0.2144,-0.4661 -0.1226,-0.0925 -0.2726,-0.1882 -0.3467,-0.3245 -0.1548,-0.2843 0.2769,-0.4733 0.4014,-0.6443 -0.0053,-0.0071 -0.0045,-0.0048 -0.0045,-0.0137 -0.2336,-0.0564 -0.6344,-0.0045 -0.7573,-0.2513 -0.1498,-0.3011 -0.259,-0.5794 -0.4608,-0.8454 -0.1223,-0.1614 -0.345,-0.2812 -0.3924,-0.4981 -0.0805,-0.2453 -0.0665,-0.4829 -0.2235,-0.6945 -0.1671,-0.2254 -0.0213,-0.3621 -0.0913,-0.5804 -0.0409,-0.1273 -0.2261,-0.1964 -0.3102,-0.2878 -0.1987,-0.2156 -0.0756,-0.4038 -0.1095,-0.6398 -0.3451,-0.0843 -0.3799,0.4559 -0.6296,0.5895 -0.2461,0.3464 -0.3161,0.4095 -0.1505,0.8134 0.1343,0.3277 -0.0235,0.3799 -0.3011,0.5529 -0.2365,0.1473 -0.1892,0.2491 -0.2281,0.4935 -0.0266,0.1666 -0.1661,0.6149 -0.4152,0.4341 -0.2851,-0.2068 -0.0415,-0.673 -0.3376,-0.7494 -0.189,-0.0488 -0.1131,0.2259 -0.0867,0.3382 0.0973,0.4134 -0.4263,0.9466 -0.3604,1.2017 0.2555,0.9891 -1.3141,-0.0266 -1.1223,-0.1645 0.1442,-0.1038 0.2991,0.0539 0.4699,-0.0502 0.1004,-0.0613 0.02,-0.3308 -0.0045,-0.4296 -0.1377,-0.5533 -0.6198,-0.2009 -0.8076,-0.6991 -0.0955,-0.2536 -0.2222,-0.1234 -0.4699,-0.1234 -0.0023,-0.0074 -0.0049,-0.0046 -0.0136,-0.0046l-0.0046 0.0046 0 0.0092c-0.0758,0.0241 0.0333,0.3711 0.0639,0.4112 0.0967,0.1263 0.0075,0.352 0.0821,0.4981 0.1455,0.2846 0.4066,0.5219 0.2555,0.9139 0,0.4429 -0.4054,0.1159 -0.5977,0.1645 -0.057,0.2357 0.0781,0.4872 0.0228,0.722 -0.0492,0.2094 -0.2898,0.4452 0.1415,0.5483 0.002,0.0084 0.0008,0.0071 0.0091,0.0092 0.0779,0.3223 -0.3564,0.1054 -0.4471,0.0822 -0.0754,-0.2953 -0.8714,-0.8222 -0.8714,-1.0418 0,-0.6067 -1.1826,0.2098 -1.3641,-0.5164 -0.1748,-0.0442 -0.511,0.0932 -0.511,0.2925 0,0.3513 -0.5153,0.2066 -0.7025,0.1919 -0.1454,-0.0115 0.0985,0.4157 0.1003,0.4752 0.1541,0.1541 0.3733,0.4547 0.4106,0.6626 0.0581,0.3241 -0.4726,0.3314 -0.1368,0.6672 0.1007,0.1007 0.2686,0.1813 0.3878,0.1416l0.0228 -0.4021c0.0122,-0.216 0.1976,-0.2863 0.2053,-0.3838 0.0088,-0.1127 -0.0288,-0.1467 0.0045,-0.2514 0.1068,0 0.2195,0.096 0.3513,0.096 0.0015,0.0045 0.0235,0.0216 0.0274,0.0228 0,0.1956 0.1481,0.4822 0.2874,0.6215 0.1805,0.1805 0.2177,0.4068 -0.1369,0.2605 -0.1234,-0.0508 -0.2737,-0.3092 -0.3512,-0.3153 -0.1263,-0.0099 -0.0296,0.5849 -0.0229,0.594 -0.057,0.0774 0.2284,0.1609 0.2738,0.1599l0.3832 -0.0091c0.1479,0.4439 -0.368,0.3941 0.1642,0.8134 0.1597,0.1257 0.7049,0.3282 0.4836,0.6351 -0.1154,0.3153 0.013,0.4574 -0.3786,0.5849 -0.372,0.1212 -0.2805,0.1143 -0.6296,0 -0.1566,-0.0513 -0.2687,0.1234 -0.3787,0.16 0,0.1932 0.1571,0.274 0.219,0.425 0.0757,0.1849 -0.3227,0.1742 -0.4243,0.2056 -0.3901,0.1205 -0.8229,-0.0281 -1.177,0.1279 -0.1078,0.0474 -0.6699,0.3811 -0.7117,0.4707 -0.2144,0.46 0.1986,0.4121 -0.4973,0.5438 -0.1972,0 -0.2899,-0.1039 -0.4289,-0.1371 -0.0204,-0.0855 -0.1926,-0.0661 -0.2463,-0.0274 -0.125,0.0899 -0.0348,0.1826 -0.0593,0.297 -0.0561,0.2626 -0.032,0.45 -0.3148,0.5895 -0.2784,0.1372 -0.7746,-0.5992 -1.136,-0.6581 -0.4038,-0.0657 -0.5445,-0.6241 -0.8987,-0.4112 -0.1089,0.0655 -0.516,0.2526 -0.5293,0.3884 -0.0247,0.2518 -0.0086,0.3901 -0.2189,0.5849 -0.2384,0.221 -0.1733,0.4335 -0.5338,0.658 -0.4046,0.2521 -0.1363,0.5507 -0.3787,0.8819 -0.2579,0.289 -0.2173,0.6508 -0.5566,0.9002 -0.1929,0.1419 -0.5903,-0.0019 -0.6934,0.1371 -0.2569,0.3466 0.3079,0.9105 -0.1004,1.3206 -0.3814,0.3829 0.2857,0.3521 0.4973,0.2513 0.0942,-0.0448 0.2962,-0.3244 0.333,-0.3244 0.0424,0 0.2857,0.242 0.2692,0.2879 -0.0648,0.1806 -0.4529,0.2089 -0.5931,0.3107 -0.3007,0.2181 -0.0333,0.4681 0.0593,0.7083 0.3098,0.6196 0.7004,0.1645 1.2181,0.1645 0.3114,0 -0.3997,0.8093 -0.4243,1.0007 -0.0352,0.2746 -0.2934,0.4357 -0.3969,0.6672 -0.2329,0.5213 -0.5679,0.4628 -0.9261,0.8179 -0.1645,0.1632 0.2887,0.3746 0.3559,0.4478 0.3039,0.0439 -0.2178,0.5818 0.3786,0.4616 0.2841,-0.0573 0.5211,-0.3224 0.3467,0.1736 -0.0602,0.1715 -0.0119,0.3234 0.1141,0.4661 0.2708,0.307 0.0441,0.231 -0.219,0.457 -0.0675,0.0579 -0.3094,0.3697 -0.406,0.3107 -0.1664,0.1007 -0.4076,-0.4444 -0.657,-0.393 -0.3048,0.0627 -0.7275,0.4012 -0.9854,0.5849 -0.2212,0.1574 -0.4256,0.1423 -0.6478,0.2285 -0.4784,0.0601 -0.3079,0.0621 -0.6752,-0.1417 -0.2302,-0.1276 -0.5037,0.0796 -0.6889,-0.0548 -0.4409,-0.3198 -0.0877,-0.8725 -0.1916,-1.3069 -0.4721,-0.118 -1.2786,0.1093 -1.4235,-0.4478 -0.0936,-0.3602 -1.3194,-0.4711 -1.4234,-0.064 -0.1569,0.0401 0.1174,0.6355 0.1323,0.7083 0.0717,0.3511 -0.2067,0.5688 -0.1186,0.8591 0.1854,0.6103 -0.4534,1.132 -0.9808,1.3023 -0.1955,0.0709 -0.3319,0.3067 -0.5749,0.2559 -0.2012,-0.042 -0.3215,-0.0018 -0.4836,0.1051 0.0847,0.2928 -0.8085,0.3714 -0.9991,0.5758 -0.2975,0.3193 -0.2058,0.9429 -0.438,1.2657 -0.2034,0.2826 -1.3308,-0.6386 -1.4553,-0.9185 -0.1436,-0.3226 0.4173,-0.802 -0.1506,-1.0372 -0.3533,-0.1464 0.2729,-0.4437 0.3833,-0.489 0.3436,-0.1408 0.1469,-0.3394 0.333,-0.6534 0.2095,-0.1502 -0.0997,-0.3442 -0.2099,-0.4204 -0.1553,-0.1072 -0.0603,-0.3089 -0.1961,-0.4341 -0.2745,-0.2528 -0.8644,-0.3594 -1.2044,-0.5301 -0.331,-0.1661 0.0213,-0.4407 -0.0867,-0.6169 -0.1559,-0.2541 0.4668,-0.4065 0.1368,-0.6306l-0.479 -0.0731c-0.3894,-0.4833 0.0577,-0.4987 -0.0958,-0.8454 -0.1391,-0.3143 0.0733,-0.6957 -0.2327,-0.8956 -0.2049,-0.1338 -0.4962,0.0845 -0.666,-0.0594 -0.3367,-0.2854 -0.0427,-0.5057 -0.1004,-0.786 -0.0457,-0.2222 -0.2868,-0.1117 -0.3924,0.0046 -0.3544,0.3899 -0.7087,0.78 -1.063,1.1698 -0.1692,0.1863 -0.0755,0.4768 -0.2965,0.658 -0.2216,0.1817 -0.467,0.3539 -0.6341,0.6123 -0.1294,0.2001 -0.3435,0.3304 -0.5152,0.4956l-0.4292 0.4823c-0.2448,0.393 0.063,0.3312 0.219,0.6123 0.1148,0.2071 0.0013,0.3608 0.146,0.5621 0.0722,0.1003 0.1505,0.1864 0.1505,0.3153 0,0.2297 -0.3027,0.414 -0.4699,0.5301 -0.3443,0.2393 -0.2895,0.6411 -0.625,0.7814 -0.1918,0.0803 -0.383,0.0242 -0.1186,0.2513 0.3123,0.2681 0.8968,-0.4204 1.2135,-0.1645 0.2183,0.1765 0.1917,0.5816 -0.0091,0.7585 -0.1793,0.1803 -0.2927,0.3737 -0.5475,0.4524 -0.1742,0.0539 -0.403,-0.0049 -0.5611,0.0594 -0.3403,0.1383 -0.0727,0.6638 -0.2327,0.9185 -0.2592,0.4123 -0.1901,0.0535 -0.1004,0.5392 0.0655,0.3543 -0.4183,0.4058 -0.5064,0.6763 -0.1309,0.4021 0.3414,0.6902 0.6479,0.8088 0.2508,0.0692 0.4108,-0.0199 0.5976,0.1919 0.1355,0.1535 0.293,0.4661 0.1551,0.658 -0.0998,0.1387 -0.2877,0.1686 -0.406,0.0503 -0.6512,-0.6512 -0.4194,1.0962 -0.1734,1.3754 0.138,0.1565 0.0649,0.3172 0.0137,0.5027 -0.0882,0.3197 -0.2117,0.1579 -0.4608,0.0777 -0.153,0 -0.1688,0.2458 -0.1688,0.361 -0.4745,0.1159 -0.2077,-0.8184 -0.6706,-0.5301 -0.4333,0.27 -1.0023,0.5436 -0.6798,1.1744 0.1839,0.3599 0.1105,0.5426 0.0821,0.9322 -0.033,0.4541 -0.645,0.0844 -0.917,-0.0366 -0.3445,-0.1534 -1.6023,-0.6758 -1.6241,-1.0738 -0.0346,-0.6335 -0.4716,-0.2484 -0.9398,-0.361 -0.196,-0.0472 -0.1684,-0.2419 -0.2966,-0.3428 -0.1007,-0.0794 -0.4731,-0.0074 -0.6067,0.0183l-0.8818 -0.3349c-0.0197,0.0811 -0.0415,0.1585 -0.0945,0.2115 -0.2509,0.2509 -0.5317,-0.1792 -0.803,-0.169 -0.2592,0.0097 -0.3806,0.2725 -0.4425,0.4843 -0.1236,0.4228 -0.1512,0.4084 -0.4973,0.6489 -0.1573,0.1092 -0.7243,0.578 -0.8759,0.5895 -0.0187,0.0014 -0.0212,0.0302 -0.0365,0.0411 -0.3399,0.2418 -0.5619,0.3002 -0.9535,0.2422 -0.311,-0.046 -0.5846,0.3533 -0.7665,0.5483 -0.1671,0.1791 -0.3516,0.0668 -0.5474,0.1051 -0.2617,0.0512 -0.4364,0.2765 -0.6661,0.3382 -0.364,0.0978 -0.551,-0.1321 -0.949,0.1554 -0.2214,0.16 -0.746,0.955 -0.8987,1.0053 -0.0135,0.0044 -0.037,-0.0022 -0.0502,0.0091 -0.024,0.0205 -0.0591,0.0499 -0.1028,0.0858l0 0 0.4815 0.49c0.3839,0.1396 1.032,0.6586 0.3923,0.9482 -0.151,0.0684 -0.2626,0.1272 -0.4379,0.1371 -0.2763,0.0156 -0.4701,-0.1117 -0.6479,0.1553 -0.1208,0.1816 -0.4895,0.1969 -0.6934,0.3108 -0.4156,0.4537 -0.8729,1.1527 -1.4143,1.4713 -0.2974,0.1751 -0.4475,0.2498 -0.7573,0.0457 -0.3014,-0.1987 -0.5866,-0.2067 -0.8029,0.1736 -0.1681,0.4352 -1.115,1.0478 -1.1041,1.252 0.0669,1.2474 -1.0306,1.8488 -1.2317,2.8878 -0.1218,0.629 0.3947,0.4857 -0.2829,1.0601 -0.3837,0.3254 0.1004,0.9243 0.1004,1.4622 0,0.1504 0.0692,0.3634 0.0182,0.4935 -0.0587,0.1501 -0.3409,0.1714 -0.365,0.3838 -0.0275,0.2414 -0.1695,0.4713 -0.3467,0.6489 -0.3636,0.6278 -0.6347,1.3219 -1.1405,1.8277 -0.7824,0.7824 -1.6093,0.4044 -2.5366,0.7128l-1.4503 0.2425 0 0z"/>
  
  
  
  
  
  
  
  
  
  
  
  
  
  
  
  
  
  
  
  
  
  
  
 </g>
</svg>