<svg xmlns="http://www.w3.org/2000/svg" xmlns:xlink="http://www.w3.org/1999/xlink" xml:space="preserve" width="210mm" height="297mm" style="shape-rendering:geometricPrecision; text-rendering:geometricPrecision; image-rendering:optimizeQuality; fill-rule:evenodd; clip-rule:evenodd" viewBox="0 0 210 297">
 <defs>
  <style type="text/css">
   <![CDATA[
    .str3 {stroke:#2F3133;stroke-width:0.1}
    .str2 {stroke:black;stroke-width:0.1;stroke-opacity:0.501961}
    .str0 {stroke:black;stroke-width:0.1}
    .str1 {stroke:#1F1A17;stroke-width:0.2}
    .str4 {stroke:black;stroke-width:0.5}
    .fil8 {fill:none}
    .fil2 {fill:none;fill-rule:nonzero}
    .fil0 {fill:#EEE}
    .fil7 {fill:#1F1A17;fill-rule:nonzero}
    .fil5 {fill:#C2C1C1;fill-rule:nonzero}
    .fil6 {fill:white;fill-rule:nonzero}
    .fil4 {fill:black;fill-rule:nonzero}
    .fil1 {fill:white;fill-rule:nonzero}
    .fil3 {fill:white;fill-rule:nonzero;fill-opacity:0.501961}
   ]]>
  </style>
 </defs>
 <g id="Plan_x0020_1">
  <metadata id="CorelCorpID_0Corel-Layer"/>
  
  
  
  
  
  
  
  
  
  
  <path class="fil0 str0" d="M107.228 27.7694c-0.3497,0.1354 -0.5293,0.5967 -0.9176,0.5967 -0.4964,0 -1.1611,0.1963 -1.5372,0.573 -0.2299,0.2305 -0.1086,0.4806 -0.1907,0.8116 -0.1458,0.5872 -0.7552,0.2268 -1.1082,0.2268 -1.7576,0 -2.3099,3.3146 -3.4022,3.8194 -0.394,0.1822 -1.2141,-0.347 -1.5611,0.0179 -0.2555,0.2688 -0.5096,0.5588 -0.6375,0.9131 -0.1989,0.5505 -0.5196,1.0298 -1.2095,1.0743 -0.3875,0.0249 -0.5531,-0.0737 -0.864,-0.2746 -0.3902,-0.252 -0.8353,-0.1162 -1.2751,-0.2208 -0.4607,0.0409 -1.0209,-0.1102 -1.4478,-0.2745 -1.0434,-0.4015 -2.3098,0.1509 -3.2592,0.5073 -0.5014,0.1883 -1.0371,0.1327 -1.5313,0.3222 -0.2908,0.1115 -0.9508,0.5789 -1.2095,0.5789 -0.1148,0.1739 -1.3665,-1.2089 -1.3942,-1.2413 -1.0782,-1.26 -2.0541,-0.7915 -3.2592,0.0119 -0.6657,0.4438 -1.5664,0.7102 -2.3893,0.7102 -0.4523,0 -0.6124,-0.2399 -0.9771,-0.3939 -0.8482,-0.3583 -0.9466,-0.1667 -1.722,-0.7519 -0.339,-0.2557 -1.5858,-0.37 -2.0198,-0.37 -0.9791,0 -1.7728,0.34 -2.6872,0.5789 -0.4752,0.1242 -0.5668,0.3477 -0.9176,0.6505 -0.4143,0.3575 -0.8038,0.4313 -1.3406,0.5072 -0.4582,0 -0.9644,-0.6063 -1.3406,-0.8534l-1.9543 -1.2831c-0.2947,-0.1935 -0.4633,-0.6578 -0.7389,-0.8713 -0.4186,-0.3245 -0.758,-0.961 -1.2989,-1.0026 -0.1727,0.2428 -1.1246,0.561 -1.424,0.561 -0.4739,0 -0.8212,0.5968 -1.2453,0.5968l0.7448 0.7161 1.1917 1.1518c0.4708,0.4549 2.139,3.8228 2.139,4.6789 0.198,0.1646 -0.0577,0.822 -0.1251,1.0085 -0.4426,1.2262 -2.2478,1.8648 -2.5383,3.2883 -0.0903,0.4422 -0.4547,0.9587 -0.4051,1.4025 0.114,0.0817 0.3217,0.5507 0.3217,0.6923 -0.0699,0.2492 0.037,1.0745 0.1251,1.3129 0.7333,1.9825 1.3706,1.01 2.3595,0.1791 0.8355,-0.7023 1.4126,-1.4249 2.4548,-1.8382 0.7001,-0.2777 0.6443,-0.0385 1.1738,0.3462 0.4162,0.3025 0.9729,0.3871 1.424,0.7102 0.4541,0.3662 1.6659,0.749 2.2761,0.7997 0.836,0.0694 1.7189,-0.1465 2.5025,-0.0478 0.1998,0.2754 0.4929,0.4041 0.6494,0.7699 0.2012,0.4699 0.3276,1.013 0.6972,1.3786 2.0969,2.0752 4.0535,2.7932 6.1429,4.6191 0.1386,0.1041 0.5765,0.4773 0.6972,0.5073 0.1064,0.1307 0.3938,0.4035 0.5302,0.4894 0.016,0.0439 0.0551,0.0824 0.0656,0.1253 0.8406,0.7194 -1.1832,3.5901 -1.4121,4.2849 0.0428,0.4646 -0.3256,1.3632 -0.4886,1.8023 -0.1181,0.3184 -0.0326,0.9932 -0.1609,1.2175 -0.156,0 -0.3526,-0.1359 -0.5481,-0.1611 -0.3615,-0.0466 -0.7674,-0.0134 -1.1023,0.0895 -0.1679,0.0515 -0.123,0.2175 -0.2026,0.3163 -0.1011,0.1257 -0.3866,0.1148 -0.4588,0.2447 -0.0364,0.005 -0.3596,0.6643 -0.4767,0.7579l-1.1201 0.8952c-0.4054,0.324 -1.1538,-0.2245 -1.5909,-0.3521 -0.1389,-0.0135 -0.3054,-0.1075 -0.429,-0.1075 -0.1266,-0.2877 -0.5322,0.3162 -0.572,0.4118 -0.3015,0.1127 -0.4902,0.8111 -0.3753,1.0862 0.3681,0.8822 0.1652,1.844 0.1906,2.787 0.015,0.5573 -0.1678,0.4513 -0.5839,0.7639 -1.1327,1.2323 -2.828,1.5287 -3.855,2.9063 -0.8194,1.0998 0.3873,1.5792 0.3873,2.5483 -0.4185,2.1793 -0.6773,1.916 -1.8769,3.8553 -0.3171,0.5128 0.026,0.9975 -0.5005,1.5218 -0.0622,0.0737 -0.1375,0.1734 -0.2323,0.197 -0.1992,0.3099 -0.7108,0.5026 -0.9772,0.7698 -0.4496,0.4507 -0.9573,0.812 -1.3287,1.3607 -0.3895,0.5753 -0.7568,1.2171 -1.3465,1.6113l-2.151 0.5431c-0.5081,0.1282 -1.326,0.8586 -1.7577,1.1936l-0.5601 0.0776c-0.3356,0.3356 -0.5581,0.9817 -0.9712,1.2473 -0.6204,0.3986 -1.4951,1.2916 -2.0615,1.5755 -0.2132,0.2226 -0.2823,0.1979 -0.3456,0.5252 -0.0801,0.4144 -0.6478,0.5501 -0.8282,0.1253 -0.274,-0.6454 -0.2643,-1.4191 -0.6197,-2.0291 -0.2954,-0.5069 -0.9834,-1.3965 -1.6206,-1.3965 -0.1892,0.2316 -1.281,1.3098 -1.3406,1.2891 -0.2281,-0.0791 -1.147,-0.579 -1.2572,-0.2984 -0.2626,0.668 -0.3077,0.6988 -0.8699,1.122 -0.5423,0.8002 -1.3779,-0.6792 -1.7577,-0.7281 -0.4178,-0.0539 -0.8842,0.9724 -0.9533,1.3248 -0.1047,0.5343 -1.04,0.9982 -1.0725,1.3667 -0.2642,0.2642 -0.1073,1.6911 -0.1073,2.0649 0.0435,0.2705 -0.267,0.7643 -0.3277,1.0503 -0.0635,0.2987 -0.2228,0.5345 -0.2383,0.8535 -0.0391,0.81 -0.6957,1.0327 -1.2691,1.4621 -0.1539,0.1151 -0.4231,0.0796 -0.4231,0.2984 0.3154,0.2259 0.0203,0.6324 -0.0536,0.8415 -0.1021,0.2885 -0.0298,0.7087 -0.0298,1.0145 0.1324,1.3627 -0.5721,2.4819 -0.852,3.6941 -0.1202,0.5208 -0.3937,2.0498 -1.1917,1.1041 -0.2535,-0.3003 -0.6564,-0.8127 -0.9831,-1.0086 -0.1551,-0.0929 -0.8774,-0.7849 -1.0367,-0.561 -0.4472,0.0561 -1.0444,0.2402 -1.2215,0.7281 -0.205,0.0877 -0.3842,1.1727 -0.5362,1.3905 -0.0909,0.4701 -0.0548,0.5709 0.2323,0.931 0,0.6447 -0.38,1.2487 -0.5064,1.868 -0.1185,0.5805 0.0621,3.5608 0.6852,4.1895 0,0.2868 0.0441,0.474 -0.0238,0.7638 -0.133,0.567 -0.5194,3.1005 -1.0904,3.2227 -0.0818,0.15 -0.634,0.3625 -0.7984,0.4297 -2.0012,0.8172 -1.8508,0.7628 -2.2522,2.7273 -0.1085,0.5316 -0.4184,1.0276 -0.2324,1.5815 0.1026,0.3904 0.1015,0.8236 0.1132,1.2294 0.0528,1.8493 0.9761,7.7245 0.2026,8.8982 -0.0269,0.2408 -0.2289,0.4762 -0.3456,0.6803l-0.8819 1.5039 0 0c0.3553,0 0.6669,0.37 0.9772,0.37 0.048,0.048 -0.4132,0.4879 -0.4766,0.561 -0.9064,1.0473 -3.3122,3.6814 -4.4509,4.1537 -0.2356,0.0978 -0.4187,0.2152 -0.6733,0.0895 -0.1785,-0.088 -0.3594,-0.3519 -0.56,-0.2925 -0.1591,0.4799 -0.1783,0.7132 -0.6733,0.8535 -0.2203,0.0625 -0.4912,-0.185 -0.7269,-0.185 -0.579,0 -1.7602,1.753 -2.0318,2.2678 -0.6532,0.743 -0.6727,1.6047 -0.6256,2.5542 0.0925,1.864 1.2552,2.8176 2.854,3.5151 1.5479,0.6756 2.6753,1.0237 2.6753,2.9661 0,0.6234 -0.1228,0.7059 0.2025,1.295 0.1664,0.4271 0.2919,1.6385 -0.2562,1.8858 -0.1156,0.2336 -0.4497,0.2464 -0.2681,0.6207 0.494,1.0185 1.2145,1.9122 1.6922,2.8706 0.1378,0.3611 0.2024,0.5203 -0.0239,0.8593 -0.2175,0.055 -0.6831,0.6151 -0.858,0.7818 -0.4509,0.4295 -3.171,1.9343 -1.561,2.6558 1.451,0.6503 2.5849,-1.4404 3.8371,-0.6565 0.3656,0.2958 0.3499,0.5547 0.3694,1.0444 0.051,1.282 0.4148,4.5709 -0.3039,5.6277l-0.7388 1.0862c0.332,0.2362 0.7461,1.1092 0.8521,1.5158 0.1094,0.4192 0.2598,0.9748 0.0893,1.3846 -0.109,0.0466 -0.1889,0.2839 -0.2979,0.3521 -1.0169,0.8941 -2.2418,0.8201 -3.426,1.2711l-2.1152 0.8057c-0.5462,0.208 -1.2447,-0.1969 -1.8173,-0.1969 -0.4799,0.6767 -0.3431,1.2388 0.1609,1.8381 0.617,0.7336 0.7015,0.9052 0.0715,1.6173 -0.1684,0.1554 -0.5993,0.0905 -0.6911,0.2984 -0.2952,0.6689 0.6638,0.8609 1.1022,0.7639 1.0782,-0.2385 1.7769,-0.6657 2.866,-0.1612 0.6306,0.2922 1.1707,0.8822 1.7457,1.1697 0.2862,1.4219 0.1977,5.805 -0.6077,6.4096 -0.6584,0.4944 -1.4883,0.0688 -2.2046,-0.0896 -0.4114,-0.091 -0.9084,-0.0775 -1.3287,-0.0775 -0.4301,0 -0.4867,0.1855 -0.7924,0.3163 -0.3725,1.1207 2.6283,1.5577 3.2949,1.6411 0,0.2316 -0.1906,0.5132 -0.2026,0.7878 -0.013,0.299 -0.0598,0.516 -0.1966,0.7818 -0.1014,0.1968 -0.3661,0.1571 -0.5124,0.376 -0.4034,0.604 -0.4043,0.6687 -1.1559,0.7639 -0.4174,0.0529 -1.1706,0.1885 -1.4896,0.4714 -0.2689,0.2383 -0.3132,0.7209 0.0954,0.8773 0.2979,0.1139 0.8686,-0.2383 1.132,-0.37 0.3644,-0.1821 0.4675,-0.232 0.8401,-0.0895 0.2912,0.1114 0.6301,0.0931 0.9236,0.1969 0.2704,0.0957 0.4974,0.7696 0.8282,0.0955 0.0597,-0.1216 -0.4651,-0.4979 -0.4767,-0.7878 -0.0152,-0.3807 0.012,-0.5437 0.3754,-0.7042 0.501,-0.2214 0.4501,-0.3539 0.9235,0.0657 1.1134,0.9863 1.6496,3.9746 3.5333,3.9746 0.8355,0 1.063,-0.1734 1.8113,0.3163 1.1511,0.7531 -0.9364,3.3699 -0.5482,4.3506 0.2773,0.1194 1.0886,-0.0716 1.436,-0.0716 1.9258,0 2.7278,-0.2053 3.9384,1.3189 0.6379,0.8033 0.2268,0.387 1.0665,0.2566 0.3449,-0.0536 2.7129,2.3242 3.5571,2.6856 0.0708,0.7034 0.354,0.693 -0.4051,1.1279 -0.3699,0.2118 -0.7157,0.5185 -1.1023,0.7042 -0.4012,0.1926 -1.5844,0.3974 -2.002,0.2268 -0.3427,-0.1399 -0.2985,-0.0723 -0.566,0.1193 -0.0688,0.0492 -0.4603,0.2271 -0.4707,0.2805 -0.1941,0.1712 0.1164,0.8455 0.2979,0.9549 0.1737,0.1046 0.4132,0.1552 0.6196,0.1552 0.2191,0 0.3235,0.2081 0.4767,0.2267 0.1029,0.2336 0.1155,0.5105 0.3396,0.6505l0.7448 0.4655c0.0443,0.2647 0.1106,0.7585 -0.149,0.9012 -1.0724,0.5897 -4.6065,3.1451 -5.4101,3.1451 -0.1107,-0.3923 -0.3212,-0.8157 -0.3932,-1.2175 -0.033,-0.1841 -0.3356,-1.1485 -0.5303,-1.1756 -0.281,-0.6375 -1.6352,0.185 -2.0914,0.185 -0.2992,-0.3639 0.062,-1.014 -0.2145,-1.4264 -0.2522,-0.4632 -1.4188,-0.4177 -1.8291,-0.4177 -0.6541,0 -1.1278,0.5204 -1.6982,0.8056 -0.3396,0.1698 -1.6485,0.5726 -1.7636,0.9191 -0.1956,0.0837 -0.3889,1.0648 -0.4111,1.2712 -0.026,0.0591 -0.1087,0.3827 -0.143,0.3998 -0.0717,0.7873 -1.6122,1.6703 -2.1808,1.9814 -0.1141,0.0624 -0.4556,0.08 -0.5243,0.1492 -0.1733,0 -0.1737,0.8175 -0.1966,0.9608l-0.2503 1.5636c-0.0571,0.6008 -0.6715,0.3937 -1.138,0.6445 -0.2625,0.141 -0.4453,0.2656 -0.566,0.5371 -0.0441,0.0992 -0.2622,0.4967 -0.2622,0.567 0.6446,0.3195 0.4409,0.9088 0.4409,1.5695 0,0.7719 -0.8839,2.9777 -1.1618,3.8135 -0.1404,0.4224 -0.3472,1.0907 -0.1192,1.4741l1.0606 1.7844c0.1739,0.7992 1.2095,1.5078 0.7567,2.4349 -0.3228,0.6619 -0.4312,1.3069 -1.2096,1.5457 -0.7389,0.2264 -0.6553,0.3806 -1.2393,0.7758 -0.2757,0.1868 -0.2009,0.3339 -0.1728,0.6505 0.0342,0.3846 0.0656,0.7389 0.0656,1.1339l0.0118 0.8026 0 0c0.1503,-0.0723 0.4093,-0.4134 0.5244,-0.5519 0.1831,0 1.2323,0.8445 1.3108,1.0443 0.1418,0.3606 0.2776,0.7956 0.2264,1.1996 -0.0734,0.58 -0.1752,1.2743 0.429,1.6471 0.2995,0.1849 0.4754,0.2757 0.8342,0.1075 0.4091,-0.1919 0.5356,-0.1337 0.9295,0.0179 0.3524,0.1427 0.4805,1.0145 0.5779,1.0145 0.6371,-1.1043 2.0376,-3.8226 3.6703,-3.2704 0.6261,0.2118 1.3126,1.0917 1.6267,1.665 0.491,0.8959 3.0021,2.362 3.2711,2.4349 0.137,0.3871 0.6532,0.7997 0.8758,1.1817 0.2615,0.4489 1.1561,0.92 1.6326,1.122 0.2996,0.1269 0.744,1.6674 0.7626,1.9932 -0.0082,0.1377 0.0054,0.6344 0.0656,0.7341 0.1235,0 0.9959,-0.9986 1.0963,-1.1399 0.193,0 0.3618,-0.0418 0.5482,-0.0418 0.1237,0.1258 -0.1168,0.8101 -0.1907,0.937 -0.1435,0.2462 -0.4115,0.4865 -0.6018,0.6923 -0.1644,0.1776 -0.1035,0.3265 0.0656,0.5252 0.6685,0.7849 2.5441,3.0006 2.5441,3.9925 0,0.3648 -0.2427,0.6403 -0.56,0.7579 -0.2734,0.1012 -1.0641,0.2891 -1.1679,0.5729 -0.2308,0.0863 -0.3023,0.736 -0.3157,0.9429 0.0118,0.0423 0.097,0.2722 0.131,0.2805 0.042,0.3756 -0.1792,0.7218 -0.1608,1.1041 0.0126,0.2634 0.897,0.2283 1.0725,0.6147 0.657,0.1793 0.827,0.0249 1.4836,-0.0955 0.41,-0.0751 0.2613,-2.1249 0.3634,-2.5423 0.2048,-0.8364 0.5581,-0.8888 1.293,-0.7878 0.3499,0.048 2.366,1.0013 1.8709,1.5576 -0.3879,0.436 -0.8767,0.4832 -1.3109,0.8057 -0.3306,0.2454 -0.2451,0.7954 -0.1906,1.1757 0.6221,0.1043 1.3363,-0.3447 2.0198,-0.2805 0.6787,0.0639 1.5786,-0.5656 1.9961,-1.0862 0.2251,-0.2257 0.4326,-0.4356 0.7745,-0.4356 0.1825,0 0.7073,0.0459 0.7746,0.2268 0.2336,0.0775 0.2211,0.803 0.1251,0.9847 -0.1786,0.3376 -0.4985,0.5924 -0.6613,0.919 -0.0929,0.1862 -0.3257,0.3478 -0.3873,0.5252 -0.4281,1.2312 0.1889,3.873 0.6137,5.1264 0.1321,0.3899 0.4129,1.3863 -0.1132,1.6114 -0.0016,0.0194 0.0028,0.0247 -0.0119,0.0358 0,0.2525 0.4822,0.6482 0.6256,0.8772 0.157,0.1511 0.28,0.2449 0.28,0.4715 -0.1373,0.1661 -0.3664,0.2044 -0.5184,0.3939 -0.507,0.0917 -0.3946,0.2603 -0.4826,0.746 -0.1224,0.676 0.319,0.9395 0.7865,1.4024l1.0785 1.0683c0.4662,0.0313 0.9149,0.2447 1.4359,0.2447 0.7213,0 1.196,-0.9637 1.6683,-1.3846 0.1895,-0.1688 0.454,-0.6931 0.6316,-0.7818 0.1128,-0.0564 0.6578,0.2362 0.7686,0.2925 0.7378,0.1259 1.1514,-0.1704 1.8769,-0.2507l1.0248 -0.1134c0.2797,-0.031 0.5456,0.1969 0.7627,0.1969 0.1371,0.1895 0.4829,0.3837 0.5362,0.6267 0.5729,0.284 0.5241,0.9933 1.4717,0.6445 0.769,-0.2831 1.8939,-0.5119 2.6872,-0.1552l1.2036 0.209 0 0 -0.0239 -0.3104c-0.0516,-0.478 -0.14,-0.7417 -0.3158,-1.1637 -0.0565,-0.1352 -0.0393,-0.2332 0.0239,-0.3641 0.5674,-0.3793 1.283,-0.7028 1.7815,-1.1458 0.1123,-0.0999 0.2537,-0.3256 0.3575,-0.3999 0.1464,-0.5502 0.3974,-1.0568 0.4886,-1.6292 0.1753,-1.1016 0.6619,-1.3254 0.9175,-2.1485 0.0566,-0.3403 -0.0851,-1.5257 0.1669,-1.7426 0.0955,-0.2899 0.268,-0.5637 0.3694,-0.8594 0.4426,-1.2892 0.793,-1.4505 0.566,-3.0436 0,-1.0121 -0.416,-2.266 0.1013,-3.2227 0.2424,-0.4483 0.6236,-1.0131 1.1738,-1.0324 1.0707,-0.0382 1.0527,-1.1915 2.3059,-1.4383 0.3908,-0.0769 0.8791,-0.4645 1.1141,-0.7758 0.3367,-0.4462 0.8887,-1.9992 1.4539,-1.9992 0.5592,0 1.0401,-0.1876 1.567,-0.006 0.3048,0.1051 0.4226,-0.0159 0.5482,-0.2924 0.2424,-0.0906 0.2264,-1.0487 0.2264,-1.2891 0,-0.2356 -0.1236,-1.3952 0.0119,-1.5278 1.1499,-1.1245 4.1878,-3.6096 5.5114,-4.2969 0.1978,-0.1026 0.7033,-0.4785 0.8878,-0.4953 0.2122,-0.3195 0.8852,-0.3792 1.1321,-0.7102 0.0505,-0.0678 0.0179,-0.2235 0.0595,-0.3163 0.1936,-0.4325 0.8204,-0.5178 0.4171,-1.0862 -0.1456,-0.0176 -1.5294,-0.6796 -1.5432,-0.7101 -0.1655,-0.0449 -0.4451,-0.3312 -0.5541,-0.4775 -0.1572,-0.2108 0.0407,-0.3784 0.1609,-0.543 0.4542,-0.7817 0.8114,-1.2068 1.5193,-1.7486 0.4886,-0.374 1.2753,-1.0298 1.8114,-1.2294 0.0695,-0.158 0.7869,0.1134 1.0009,0.1134 0.4008,0 0.732,-0.3402 1.144,-0.3402 0.2353,0 0.2829,-0.4299 0.3754,-0.5968 0.4772,-0.8603 3.4831,-1.2204 3.3724,-2.2081 -0.0361,-0.3214 -0.1131,-0.6356 -0.0536,-0.9609 0.1124,-0.6151 -0.2026,-1.5101 -0.2026,-2.1663 0.1674,-0.1688 0.4485,-0.0966 0.6375,-0.2327 0.2853,-0.2053 0.4112,-0.2711 0.7388,-0.0955 0.4965,0.266 1.1679,0.1175 1.1679,-0.555 0,-0.2175 -0.1046,-0.607 -0.3337,-0.7102 -0.3444,-0.5181 -0.6498,-0.7736 -0.8103,-1.4144 -0.1386,-0.5531 -0.1576,-1.008 -0.1311,-1.5815 0.0128,-0.2775 0.1023,-0.603 0.0477,-0.8773 -0.0273,-0.1377 -0.1601,-0.1742 -0.2145,-0.3044 -0.3261,-0.5866 -0.4726,-0.9741 -0.5005,-1.659 -0.0364,-0.8944 -0.8526,-0.6308 -1.1738,-1.2354 -0.8424,-0.3505 -0.4911,-3.0961 -0.8223,-3.909 -0.0905,-0.222 -0.6295,-1.3974 -0.566,-1.5457 0.3208,-0.0772 0.6934,0.0256 1.0427,-0.0775 0.3774,-0.1116 0.7771,0.1283 1.1082,-0.0537 0.238,-0.1309 0.3829,-0.2494 0.429,-0.5431 0,-0.7716 -1.0452,-1.2652 -1.6981,-1.2652 -0.2269,0 -0.6568,-0.0265 -0.7269,-0.2686 -0.0862,-0.2979 -0.2903,-0.6735 -0.3336,-0.9608 -0.0201,-0.1339 0.236,-0.2245 0.3277,-0.2984 0.422,-0.3404 0.8455,-0.7167 0.8699,-1.301 0.0106,-0.2531 0.0953,-0.5481 0.0953,-0.7758l-0.7865 -0.1492c-1.1601,-0.479 -2.2181,-1.3842 -2.4012,-2.7691 -0.2456,-0.1537 -0.1522,-0.8139 -0.4707,-0.5491 -0.3189,0.2653 -0.5162,0.6195 -0.8163,0.9071 -0.3002,0.2875 -0.7653,-0.2966 -1.0307,-0.364l0.3217 -0.5789c0.5967,-1.0745 -0.6048,-2.1217 -0.2741,-2.8646 0.383,-0.8611 0.6841,-1.874 0.3456,-2.7512 -0.2883,-0.7947 -0.6435,-1.8461 -0.6435,-2.6915 0,-0.2714 0.1225,-0.4644 0.143,-0.7102 1.703,-1.2201 -0.6021,-1.3096 -0.8818,-1.3368 -1.1989,-0.1511 -1.7342,-0.3021 -2.1748,-1.4502 -0.461,-1.2016 -0.0725,-0.73 -1.6802,-1.2712 -0.4073,-0.137 -1.0015,-0.6638 -1.3585,-0.728 -0.1059,-0.2126 -0.5105,-0.4401 -0.6733,-0.7281 -0.4276,-0.7561 -0.4305,-4.6538 -0.3396,-5.4666 0.7395,-0.4984 0.9011,-1.6233 1.8649,-1.6233l2.3178 0c0.1068,0.1602 0.4379,0.5789 0.6673,0.5789l0.8938 1.2353c0.3624,0.5011 0.7094,0.9328 1.001,1.4383 0.1402,0.0202 0.1966,-0.0818 0.2867,-0.1076 0.1007,-0.0283 0.3258,-0.171 0.3687,-0.2684 0.0553,-0.1252 0.0453,-0.2732 0.1251,-0.3939 0.0831,-0.1259 0.616,0.1723 0.6494,0.3223 0.1246,0.5616 0.3411,0.6412 0.6555,1.0802 0.0131,0 0.3029,0.034 0.2442,0.0119 0.4008,-0.1657 0.4511,-0.6625 0.572,-1.0443 0.1053,-0.3322 0.609,-0.3223 0.8342,-0.1194 0.1198,0.1078 0.2518,0.5346 0.3694,0.5849 0.008,0.0879 0.2454,0.6621 0.3218,0.6743 0.2292,0.0366 0.4984,0.1536 0.6256,-0.0537 0.2975,-0.4852 0.6171,-1.194 1.2631,-1.0145 0.3747,0.1042 0.7199,0.3481 0.9951,0.6385 1.2086,1.2746 2.0698,2.8914 2.6812,4.5476 0.0908,0.2455 0.3406,0.8434 0.5541,0.9966 0.2041,0.1463 0.3635,-0.1372 0.5362,-0.1372 0.0201,-0.0701 0.8521,-0.4536 3.1222,-1.9635 0.6293,-0.4185 1.5502,-0.1424 2.3118,-0.2924 0.472,-0.093 0.6872,-0.6416 1.0367,-0.1074 0.3151,0.4815 0.8746,0.8851 1.4956,0.5251 0.2628,-0.1524 0.5211,-0.1327 0.7745,-0.0596 0.0453,0.2235 0.1611,0.5701 0.0894,0.8176 -0.2624,0.422 -0.6834,0.6831 -0.9533,1.0921 -0.1207,0.1831 -0.1185,0.9644 0.0357,1.122 0.1646,0.1684 0.4681,0.2502 0.6674,0.4058 0.2582,0.2014 0.4167,0.2647 0.6375,0.5431 0.1153,0.1453 0.3846,0.2523 0.4528,0.3759 0.0514,0 0.0727,-0.0121 0.1132,-0.0179 0.0868,-0.3446 0.0126,-0.8656 -0.0536,-1.2174 0.0809,-0.4028 0.5563,-0.698 0.9414,-0.7102 0.2072,-0.0065 0.4208,-0.072 0.6376,-0.0776 0.275,-0.0072 0.9549,-0.0935 1.138,-0.2984 0.1505,-0.1686 0.1601,-0.3887 0.2264,-0.5968 0.2388,-0.7487 0.7245,-1.6937 0.1609,-2.4468 -0.2688,-0.3593 -0.6047,-0.9723 -0.7448,-1.4144 -0.0601,-0.1899 -0.2849,-0.8821 -0.4111,-0.9907 -0.2391,-2.1402 -1.4813,-1.8612 -3.4737,-1.9157 -1.0087,-0.0276 -1.8626,0.6098 -2.9255,0.3641 -2.1164,-0.4894 -3.2145,-0.8664 -3.4856,-3.4853 -0.0702,-0.679 -0.3218,-1.3525 -0.3218,-2.0291 0.0364,-0.3256 0.131,-0.7284 0.2682,-1.0264 0.5942,-1.2917 -0.8503,-2.3668 0.0178,-3.3242 0.2551,-0.2812 0.4424,-0.7043 0.6495,-1.0264 0.4004,-1.0062 -1.2492,-1.1307 -1.281,-1.7845 -0.0766,-1.5661 1.599,-1.5861 1.138,-3.6284 -0.074,-0.3276 -0.2094,-0.612 -0.292,-0.9131 -0.2382,0 -0.3026,0.8176 -0.6137,0.8176 -0.443,-0.8456 -0.7072,-1.3211 -1.0069,-2.2738l-0.709 -1.1458c-0.1216,-1.4538 -0.6999,-2.8386 -0.4171,-4.3089 -0.0727,-0.4572 -0.2825,-0.6517 -0.4826,-1.0324 -0.9534,-1.8126 0.0965,-3.6697 -0.8461,-5.3114 -0.1999,-0.3484 -0.1876,-0.9018 -0.2562,-1.307 -0.061,-0.3609 0.3832,-2.0185 0.6613,-1.4621 0.1679,0.3358 0.3476,0.7888 0.4171,1.1458 0.16,0 0.339,-0.2029 0.6137,-0.2029 0.3119,0 0.4877,0.0928 0.6971,0.3163 0.3859,0.4121 0.8459,0.9067 1.3407,1.1816 0.852,0.4732 1.8392,-1.7221 2.0377,-2.3215 0.6135,-1.8535 1.5231,-2.0683 2.4131,-3.4077 0.7861,-0.1681 1.2925,-2.5157 1.3585,-3.2167 0.0333,-0.5124 0.0825,-0.898 -0.0119,-1.4024 -0.0825,-0.4404 -0.3197,-0.8543 -0.1192,-1.307 0.2618,-0.5909 1.5481,-1.3533 2.1688,-1.48 1.0327,-0.2108 2.0684,0.5431 2.9494,0.5431 0.6305,0.4746 1.2084,-0.3786 1.7815,-0.5909 0.8656,-0.3208 1.1071,-0.1708 1.8768,0.2567 0.8366,0.4645 1.9389,-0.7939 2.8123,-1.0504 0.2818,-0.0827 0.5057,0.0634 0.7508,0.0358 0.1224,-0.0138 0.7052,-0.2278 0.7209,-0.1313 0.0468,0.0117 0.0417,0.2963 0.0417,0.3342 0.2372,0.551 0.3582,0.749 0.87,1.0444 0.2885,0.1666 0.7169,0.9754 0.9473,1.0086 0.2987,0.6727 1.7929,0.9316 2.437,1.1399 0.8391,0.2713 2.1225,-0.1091 2.6514,-0.8057 0.6481,-0.8544 1.7188,-1.9458 1.9186,-2.9243 0.1389,-0.6804 0.0709,-1.5155 0.3694,-2.1126 0.437,-0.0885 0.8388,-0.7068 0.7984,-1.1459 0,-0.4356 -0.1751,-0.795 -0.1013,-1.2413 0.0585,-0.3534 0.3545,-0.531 0.4886,-0.8057 0.2911,-0.5958 1.0205,-0.9801 1.6742,-0.9548 0.5863,0.0226 1.1306,0.2442 1.6862,0.2984 0.8074,0.0789 1.2027,0.4917 1.7458,-0.2208 0.4078,-0.5372 -1.5521,-3.7158 -2.0735,-4.2372 -0.0932,-1.154 0.4864,-2.8867 1.0785,-3.8851 0.0998,-0.1768 0.0357,-0.3743 0.0357,-0.567 0,-0.176 0.2014,-0.3618 0.2979,-0.4953 0.227,-0.3144 0.6197,-0.6724 0.6197,-1.0862 0,-0.2476 -0.0415,-0.4162 0.1251,-0.6087 0.9199,-1.0622 0.6997,-0.7622 0.8401,-2.2917 0.3935,-0.4412 0.9435,-0.7641 0.9891,-1.3786l0.143 -1.9216c0.0274,-0.3694 0.2082,-0.5251 0.3396,-0.8236 0.9812,-0.2453 1.4839,0.1957 2.2582,-0.6863 0.2161,-0.2462 0.5138,-0.3212 0.7567,-0.5312 0.3142,-0.1559 0.4201,-0.3679 0.7865,-0.1492 0.2132,-0.0259 0.3902,-0.7327 0.2324,-0.8116 -0.0927,-0.3381 -0.3387,-0.4968 -0.5482,-0.746 -0.9296,-1.1051 -2.0147,-4.1264 -0.9593,-5.5263 0.2961,-0.3925 1.0934,-1.099 0.9474,-1.6531 -0.3056,-1.1601 -1.2591,-1.4721 -0.2622,-2.8347 0.3583,-0.4899 0.6879,-0.8099 0.8223,-1.4144 0.2094,-0.9413 1.9508,-1.8621 2.8302,-2.0947l2.9255 -1.116c0.6652,-0.2537 1.3194,-0.9999 1.7458,-1.5577 0.2367,-0.3095 0.6879,-0.5379 0.8877,-0.8593 0.9424,-0.1351 2.5922,-1.0677 3.5273,-1.4443l0 0 0.4231 -0.173c1.022,-0.3933 1.9392,-0.6439 2.1628,-1.8799 0.2259,-1.2493 0.7119,-2.3967 0.8947,-3.7837 0.0785,-0.5962 -2.1511,-0.6803 -2.6455,-0.6803 -0.0797,-0.1399 -0.2302,-0.6309 -0.0596,-0.7162 0,-0.3871 0.7647,-0.7875 0.8938,-1.2174 0.1765,-0.5872 0.4987,-1.1263 0.7626,-1.6949 0.3511,-0.7567 2.2128,-1.8735 2.9554,-2.0888 3.6474,-1.0576 3.386,-2.9307 5.7677,-4.8578 1.4917,-1.2076 2.3447,-3.8289 2.9554,-5.5621 0,-0.4264 0.4213,-2.7307 0.0715,-2.7811 -0.0283,-0.0993 -1.1633,-0.0596 -1.3466,-0.0596 -0.279,0 -1.2193,0.0233 -1.3466,0.2148 -0.892,-0.4868 -2.3552,-0.3439 -3.0626,-1.0384 -0.8434,-0.8279 -1.6315,-1.6165 -1.7994,0.2506 -0.0684,0.0342 -0.1545,0.489 -0.3099,0.6088 -0.1824,0.1408 -0.5184,-0.2183 -0.6435,-0.3104 -0.139,-0.1022 -0.5884,-2.41 -0.6912,-2.8049 -0.1294,-0.4968 -0.3413,-0.7747 -0.7626,-1.0503 -0.6129,-0.4008 -2.0975,-0.7554 -2.1927,-1.7188 -0.1958,-0.0275 0.1668,-4.5325 0.1668,-5.5143 0,-0.4387 0.1964,-1.0428 0.0715,-1.4562 -0.2024,-0.6696 -0.6075,-1.1748 -0.9176,-1.7188 -1.2773,0 -3.6685,0.5888 -2.6336,-1.5516 0.0808,-0.9809 -0.3479,-2.0942 0.3694,-2.8646 0.5855,-0.6288 1.4316,-1.389 1.6326,-2.2559 0.1386,-0.598 0.286,-1.2346 0.286,-1.8381 -0.088,-0.0218 -0.1706,-0.2803 -0.4051,-0.2984 -0.2151,-0.0165 -0.4483,-0.1285 -0.6435,-0.2148 -0.5356,-0.2371 -1.1056,-0.5411 -1.6922,-0.6565 -2.1614,-0.4255 -0.0947,1.932 -1.0725,2.1843 -0.8727,0.2251 -1.3799,0.0958 -1.9544,-0.5013 -0.535,-0.179 -1.242,0.1637 -1.8113,0.0477 -0.5479,-0.1117 -0.8368,-0.2511 -1.2751,-0.5371 -0.7282,-0.475 -0.4396,-1.3468 -0.9534,-1.7188 -0.3414,-0.2473 -1.0695,-0.654 -1.2751,-1.0145 -1.2604,-2.211 -2.5436,-4.2715 -4.0517,-6.3379 -0.5839,-0.2196 -1.4333,-1.0944 -1.9186,-1.5278 -0.303,-0.2707 -1.2448,-1.1962 -1.6087,-1.2413 -0.3111,-0.5588 -0.8706,-0.8749 -0.9891,-1.6114 -0.0388,-0.2412 -0.2464,-1.6616 -0.4767,-1.7187 -0.1034,-0.9415 -1.8614,-2.1537 -2.1813,-3.169 -0.0601,-0.1905 -0.2149,-0.4649 -0.3336,-0.6206 -0.7852,-1.0288 -1.8211,-1.1428 -3.009,-1.2831l0 0 -0.4941 0.5848c-0.1123,0.3379 -0.0722,0.7065 -0.2026,1.0504 -0.1419,0.3745 -0.5226,0.5347 -0.7388,0.8235 -0.1841,0.2461 -0.211,0.4411 -0.3337,0.7043 -0.4174,0.8956 -1.9282,1.1597 -2.2403,2.2797 -0.1429,0.5131 -0.1895,1.3122 -0.5244,1.6471 -0.3791,0.3791 -0.8391,1.6956 -1.0248,2.2082 -0.1824,0.0226 -0.489,0.4739 -0.7031,0.5848 -1.4222,0.6649 -3.4801,1.4424 -5.0527,1.3726 -0.3649,-0.0161 -0.8957,-0.3667 -1.1559,-0.2864 -0.6207,0.1914 -1.5553,0.6607 -2.2285,0.561 -0.8856,-0.1311 -1.4877,-0.4088 -2.1927,-0.8833 -0.3477,-0.2339 -1.9106,-1.743 -2.1331,-2.0768 -0.3654,0 -0.7339,0.1151 -1.0606,-0.0716l0 0z"/>
  
  
  
  
  
  
  
  
  
  
  
  
  
  
  
  
  
  
  
  
  
  
  
  
  
  
  
  
  
  
  
  
  
  
  
  
  
  
  
  
  
  
  
  
  
  
  
  
  
  
  
  
  
  
  
  
  
  
  
  
  
  
  
  
  
  
  
  
  
  
  
  
  
  
  
  
  
  
  
  
  
  
  
  
  
  
  
  
  
  
  
  
  
  
  
  
  
  
  
  
  
  
  
  
  
  
  
  
  
  
  
  
  
  
  
  
  
  
  
  
  
  
  
  
  
  
  
  
  
  
  
  
  
  
  
  
  
  
 </g>
</svg>