<?xml version="1.0" encoding="UTF-8"?>
<!DOCTYPE svg PUBLIC "-//W3C//DTD SVG 1.1//EN" "http://www.w3.org/Graphics/SVG/1.1/DTD/svg11.dtd">
<svg xmlns="http://www.w3.org/2000/svg" xmlns:xlink="http://www.w3.org/1999/xlink" xml:space="preserve" width="297mm" height="210mm" style="shape-rendering:geometricPrecision; text-rendering:geometricPrecision; image-rendering:optimizeQuality; fill-rule:evenodd; clip-rule:evenodd" viewBox="0 0 297 210">
 <defs>
  <style type="text/css">
   <![CDATA[
    .str4 {stroke:#2F3133;stroke-width:0.1}
    .str3 {stroke:black;stroke-width:0.1;stroke-opacity:0.501961}

    .str2 {}
    .fil1 {fill:#FF9933}
    .fil0 {fill:white}
    .fil6 {fill:#1F1A17;fill-rule:nonzero}
    .fil4 {fill:#C2C1C1;fill-rule:nonzero}
    .fil5 {fill:white;fill-rule:nonzero}
    
    .fil2 {fill:white;fill-rule:nonzero;fill-opacity:0.501961}
   ]]>
  </style>
 </defs>
 <g id="Plan_x0020_1">
  <metadata id="CorelCorpID_0Corel-Layer"/>
  <path class="fil0 str0" d="M226.294 68.2077c-0.366,-0.8221 -1.3947,-1.4209 -1.9526,-2.1111 -0.5071,-0.6272 -1.441,-0.8655 -2.0165,-1.4439 -0.2936,-0.2952 -0.3808,-0.9078 -0.511,-1.2885 -0.0745,-0.91 0.4771,-1.7053 0.7209,-2.5497 0.4222,-1.4616 1.5727,0.6551 2.1807,-0.0549 0.1531,-0.1787 0.7072,-1.2344 0.6569,-1.4256 -0.0733,-0.2788 -0.3632,-0.5627 -0.5566,-0.7676 -0.9443,-1 -1.5234,-1.0967 -2.8559,-1.0967 -0.7696,0 -0.2226,-0.9619 -0.5018,-0.9778 -0.6709,-0.0381 -1.1203,-0.1933 -1.2227,0.4752 -0.0789,0.5157 -0.0049,1.0933 0.2373,1.5627 0.1509,0.2927 0.5018,0.2639 0.5018,0.6854 0,0.2719 -0.0619,0.7163 -0.1551,0.9687 -0.253,0.6856 0.0078,1.5566 -0.5931,2.0653 -0.4336,0.1765 -0.9033,0.6348 -0.9033,1.1332 0,0.7645 0.737,0.4303 1.2044,0.5484l0 0.0639c-0.5358,0.1354 -1.3141,0.414 -1.7427,0.8042 -0.7291,0.6639 0.3049,0.4953 0.4014,1.0236 0.0673,0.3681 -0.2919,0.7152 -0.2919,1.124 0,0.6596 -0.7044,-0.5534 -1.0037,0.2376 -0.1914,0.5056 -0.7302,0.5311 -1.2409,0.4021 0,-0.0969 0.2748,-0.5552 0.3193,-0.7219 0.1843,-0.6902 -2.5759,0.7048 -2.0347,0.8133 0.4958,0.0995 1.0484,0.3032 0.9033,0.8865 -0.0728,0.2926 0.0517,0.2984 0.146,0.5117 0.0927,0.21 0.0183,0.4928 0.0183,0.7311 -0.1825,1.0657 1.5197,1.112 2.1989,1.3434 0.4153,0.1414 0.9802,0.4443 1.396,0.5026 0.5728,0.0802 0.3406,-0.594 0.6661,-0.594 0.2121,0.8627 1.0666,-0.0038 1.177,1.0236 0.0421,0.3918 0.2774,0.3838 0.6205,0.5209 0.3423,0.1367 0.3936,-0.4229 0.4653,-0.6397 0.5138,0 0.5407,1.3701 1.3413,0.7585 0.5563,-0.4251 0.6732,-0.6354 1.4143,-0.6032 1.9239,0.0836 1.6571,-2.3004 1.2226,-3.4635l-0.2098 -0.4478zm-142.056 67.2515c-0.1717,-0.0428 -0.8759,-0.6139 -0.8759,-0.8225 0,-0.4507 -0.2842,-1.3023 -0.9124,-1.0235 -0.465,0.9352 1.6524,2.7199 2.1442,3.3631 0.3936,0.5146 0.5024,1.1202 0.9398,1.6084 0.2794,0.3117 0.5776,1.0228 0.6296,1.4347 0.0261,0.0263 1.6424,-0.5306 2.1168,-0.923 0.5177,-0.4284 0.3383,-1.418 0.9216,-2.0013 0.5917,-0.3293 0.1705,-0.277 0.9124,-0.3656 0.1406,-0.0168 0.2719,0.0133 0.4106,-0.0365 0.0942,-0.0337 0.2007,-0.0732 0.2919,-0.1188 0.4521,-0.3074 0.9616,-0.7117 1.4417,-0.2833 0.2051,0.1829 0.1937,0.2122 0.3558,0.0091 0.0958,-0.1202 0.5201,-0.2899 0.5201,-0.393 -0.3938,-0.0973 -0.5648,-0.5531 -0.8394,-0.7859 -0.3059,-0.2595 -1.9627,0.501 -2.3815,0.658 -0.5744,0.2155 -1.3347,0.1937 -1.8431,0.5118 -0.4492,0.2812 -1.6082,1.6975 -2.0894,1.5718 -0.2629,-0.0687 -1.3614,-1.7021 -1.615,-2.0288l-0.1278 -0.3747zm76.288 52.8125c-0.6033,-0.5035 -1.0652,-1.431 -1.6058,-2.0288 -0.3842,-0.4249 -0.6197,-1.796 -0.876,-1.974 -0.2069,-0.1436 -0.4725,-0.0607 -0.6934,-0.2558 -0.1863,-0.1647 -0.584,-1.6005 -0.584,-0.5118 0,0.8121 -0.8161,0.7489 -0.8576,1.2977 -0.0231,0.3065 0.0405,0.9658 0.1824,1.2428 0.2202,0.4295 0.4384,0.3335 0.8212,0.2011 0.433,-0.1497 1.0725,1.2801 1.1497,1.5718 0.3583,1.3536 1.5289,0.7018 2.1168,1.9374 0.2042,0.429 1.0809,0.5776 1.4964,0.8774 0.2861,0.2063 0.6428,1.0619 0.9124,1.1514 0,-1.1975 0.4205,-3.2533 -1.4781,-3.2533l-0.584 -0.2559zm-13.9235 -13.2328c-0.3463,0.1865 -0.6556,0.3256 -1.0767,0.1827 -0.2467,-0.0836 -0.495,-0.1316 -0.7482,-0.2376 -0.1935,-0.0811 -0.4846,-0.3655 -0.6569,-0.3655 -0.0385,0.3093 0.013,0.6418 -0.0365,0.9504 -0.1118,0.6969 0.0428,1.0442 0.6204,1.4074 0.35,0.2202 0.7447,0.4569 1.1679,0.4569 0.3061,0 0.6291,-0.1158 0.9307,-0.1645 0.6025,-0.0975 0.5427,-0.3927 0.7664,-0.8773 0.2428,-0.5262 0.011,-0.8486 -0.3467,-1.2063l-0.6204 -0.1462zm-29.6537 -10.7106c-0.5694,0.1221 -0.7112,-0.6214 -1.0949,-0.6214 -0.5035,0 -1.2519,-0.0537 -1.6972,0.0731 -0.0585,0.4121 -0.1106,1.3264 0.1825,1.645 0.2898,0.3149 0.993,0.5677 1.4234,0.4935 0.766,-0.132 0.8119,-0.7224 1.5146,-0.0914 0.1774,0.1592 0.6199,0.2541 0.8577,0.3655 0.3045,0.1426 0.5715,0.2104 0.8942,0.1462 0,-0.2974 -0.3669,-0.8165 -0.6205,-0.9504 -0.4602,-0.2432 -0.7275,-0.3898 -1.0584,-0.8042l-0.4014 -0.2559z"/>
  <g id="_475971832">
   
   
   
   
   
   
   <path id="_475980376" class="fil1 str1" d="M77.8386 101.285c1.0863,0.236 1.6171,-2.2795 2.4114,-2.7638 1.611,-0.9821 2.0583,-2.5995 3.6764,-2.9848 0.9872,-0.235 1.3419,1.0752 2.6208,0.5096 1.234,-0.5458 1.1259,-0.6232 2.548,-0.546 0.955,0.0518 0.958,-0.5622 1.6744,-0.8008 1.2992,-0.4329 0.951,0.6632 2.4752,-0.546 0.3751,-0.2975 0.6387,0.6874 1.7472,-0.0364 1.3781,-0.8999 2.5241,-1.3909 3.9676,-2.0384 1.5452,-0.6932 -0.0562,-1.2216 -0.4004,-1.82 -1.4359,-2.4959 3.2356,-4.7571 4.6228,-6.188 0.754,-0.7778 0.3756,-1.9547 0.4368,-3.0212 0.0828,-1.442 1.8492,-2.9559 1.5652,-4.3316 -0.1954,-0.9461 -1.3642,-0.5081 -1.0556,-2.3296 0.1754,-1.0358 0.7149,-1.633 1.2012,-2.4752 0.7205,-1.2477 0.0019,-2.669 1.3468,-3.822 0.7789,-0.6678 1.3468,-2.9485 2.2932,-3.4216 0.0241,-0.012 0.0485,-0.0242 0.0728,-0.0364"/>
   <path id="_475993312" class="fil1 str1" d="M99.5801 91.623c1.0993,0 2.74,-1.5547 3.9659,-0.6734 0.8524,0.6129 2.3356,0.0435 3.458,0.6916 1.1053,0.6382 1.2915,0.1701 2.3296,1.1284 0.9256,0.8545 5.3795,-1.0487 6.552,-1.5652 3.1421,-1.3843 0.2017,-7.084 4.2952,-6.5156 2.9586,0.4109 4.3474,-5.7054 6.6612,-6.7704 0.7712,-0.3549 3.6552,-3.7173 4.004,-3.4944 2.5697,1.6416 2.5412,7.0959 7.2072,4.914 2.3129,-1.0815 3.2682,-4.2251 4.5136,-6.37 1.3656,-2.352 2.3595,-2.6227 4.2952,-4.186 1.0662,-0.8611 0.3336,-2.9204 2.1476,-3.3488 2.4026,-0.5675 3.9594,-0.5586 5.9696,1.1648 1.5948,1.3672 4.5326,2.0297 6.4428,2.9848"/>
   <path id="_475977400" class="fil1 str1" d="M130.846 74.424c1.1538,-1.7612 -0.1407,-4.7785 -2.002,-5.3508 -0.7765,-0.2388 -1.7318,-4.1206 -1.7836,-5.0232 -0.0374,-0.6533 0.8515,-1.6632 0.5824,-2.1476 -0.3201,-0.5762 -0.9138,-0.8177 -0.9464,-1.5288 -0.0634,-1.3838 0.3842,-2.091 -0.6916,-3.1668 -1.687,-1.687 -0.7439,-3.5397 -2.184,-5.46 -0.4932,-0.6577 -3.3124,-4.8939 -3.3124,-5.3872"/>
   <path id="_475980640" class="fil1 str1" d="M117.397 89.1983c0.7251,0.4309 0.5728,1.1896 1.2909,1.6421 0.7069,0.4454 1.6077,0.4863 2.366,0.8736 1.454,0.7428 1.2624,2.2204 3.458,2.2204 1.3911,0 2.1518,-1.7001 3.4216,-1.456 2.6266,0.5051 3.1611,1.1833 5.8968,-0.0364 2.2286,-0.9936 4.2172,0.123 6.4428,-0.6188"/>
   <path id="_475975000" class="fil1 str1" d="M111.193 92.8564c0.9799,0.0602 2.1516,2.0674 3.0911,2.716 1.2141,0.8382 0.7739,1.8926 2.6208,2.366 2.522,0.6465 3.7755,4.2943 5.3144,4.5136 1.0703,0.1525 0.9905,1.0851 1.6016,1.4924 1.7295,1.1529 2.7031,0.2229 4.4044,2.3296 1.1921,1.4761 1.5336,1.8549 3.094,1.1648 0.9931,-0.4392 5.7672,1.2465 7.1708,1.4196 1.3932,0.1718 5.1682,-1.8344 5.7512,-3.1304 0.4206,-0.935 0.9854,-1.4499 1.9292,-1.8928 0.72,-0.3378 1.2332,0.2262 1.8564,0.4368 1.0997,0.3717 2.7067,-0.9807 3.7128,-1.456 2.0758,-0.9807 1.8217,-3.2773 2.1476,-5.1688 0.179,-1.0391 -0.252,-1.6207 0.2548,-2.6936 0.403,-0.8532 0.731,-1.7979 1.2012,-2.6208"/>
   
   
   
   
   
   <path id="_475972096" class="fil1 str1" d="M158.51 76.7536c1.9355,1.129 1.7024,4.4892 3.5308,5.8604 1.7332,1.2998 1.0379,2.7846 2.0748,4.5136 1.0048,1.6756 1.3664,1.7948 1.7836,3.7856 0.4125,1.9683 0.0353,4.1804 0.5096,6.0788 0.2155,0.8624 0.8372,1.2473 0.8372,2.366 0,2.3807 0.5126,4.1047 2.2932,5.7876 1.581,1.4941 2.7972,3.5836 2.1112,5.824 -1.1428,3.7317 -0.0173,4.7467 1.4196,8.008 0.3062,0.6952 0.8105,2.0675 1.274,2.5844 0.8494,0.9473 1.4236,0.9757 1.8928,2.2204 0.1464,0.3883 0.3073,0.8062 0.4538,1.1948"/>
  </g>
  <path class="fil1 str2" d="M94.4906 29.1815c-0.2581,0.7341 0.0362,2.872 0.432,3.4767 0.4367,0.667 1.0687,0.2745 1.3686,0.9504 0.648,1.4604 1.1958,1.4516 2.1716,2.4309 0.2291,0.2298 0.1913,1.5063 0.6204,2.1019 0.8641,1.1997 0.598,1.8124 -0.6022,2.3029 -1.7541,0.7168 -1.8698,0.0366 -3.4854,0.0366l-0.0183 0.0183c0,1.074 -3.1204,0.8481 -3.1204,-0.786 -0.0336,-0.0083 -0.0282,-0.0029 -0.0365,-0.0365 -2.1078,0 -1.6691,-1.1368 -2.3176,-2.5223 -0.343,-0.7327 -0.7252,-1.389 -0.9124,-2.175 -0.1396,-0.5859 -1.0147,0.286 -1.5511,0.3838 -1.0412,0.1898 -2.1727,-0.5542 -3.3212,-0.3472 -0.801,0.1444 -0.9815,0.1656 -1.7519,-0.128 -0.5457,-0.208 -0.501,0.3838 -1.2956,0.3838 -1.2847,-0.539 -1.8567,-2.8179 -3.7045,-2.504 -1.7581,0.2986 -1.7769,2.0654 -3.6496,2.0654 -1.718,0 -2.1357,0.5955 -3.1023,-0.8042 -0.3837,-0.5558 -1.2937,-2.2557 -2.0256,-2.2116 -1.3788,0.0832 -1.3509,0.3653 -2.3358,-0.6214 -0.488,-0.489 -0.4771,-1.7364 -1.4051,-1.7364 -1.8154,0 -3.1655,-0.5229 -3.7227,1.1515 -0.2627,0.7892 -1.3831,-0.58 -2.0073,0.2193 -1.0574,1.3542 -2.4102,1.088 -3.1022,2.0471 -0.6511,0.9026 -1.18,-0.2347 -1.6789,-0.4386 -0.6044,-0.2469 -1.3341,0.8995 -1.8066,1.1514 -0.2717,0.1458 -0.7075,0.329 -1.0036,0.329 0,2.5036 -5.5111,0.2895 -5.5111,3.4179 0,0.2056 -2.7674,-0.7062 -3.4124,-0.8225 -0.7537,-0.1358 -2.2757,1.1515 -3.4125,1.1515 -0.345,1.3839 -1.4576,1.6618 -2.0621,2.8513l-1.0219 2.0105c-0.3346,0.6584 -0.9253,0.9368 -1.5511,1.2794 -0.5198,0.2846 1.0886,1.8133 0.7117,2.3395 -0.7961,1.1116 -0.292,1.2588 -0.292,2.3029 -0.7093,1.6587 -0.9076,1.7419 -2.1533,0.4935 -0.4678,-0.4687 -1.917,0.3889 -1.9526,0.8591 -0.0528,0.6985 0.2426,1.6484 0.4015,2.3395 0.046,0.2005 0.6669,0.1462 0.8577,0.1462 1.0395,0 1.1069,-0.2143 0.8576,0.8042 -0.1889,0.7714 -0.4562,1.3336 -0.4562,2.1567 0,1.6399 -0.3057,0.9303 -1.2409,0.128 -1.9711,-1.6912 -0.8062,2.3253 -1.1679,2.8695 -0.4309,0.6481 -1.1735,0.655 -1.4781,1.5353 -0.3422,0.9892 -0.2435,1.1751 -1.1131,1.9374 -0.1372,0.0687 -0.3286,0.2488 -0.438,0.2924 0,1.5105 0.8316,1.5404 1.9161,2.3944 0.7183,0.5655 0.568,1.4312 0.6204,2.2298 0.0921,1.4035 3.0386,1.679 2.7191,2.5223 -0.2859,0.7548 -0.1278,1.3907 -0.1278,2.1933 0,0.778 -1.0329,-0.0763 -1.2409,0.9687 -0.5171,0.1292 -1.0781,-0.2742 -1.6423,-0.2742 -0.1115,0.3359 1.263,1.7583 1.6058,2.0105 0.4145,0.3051 0.8709,0.435 1.3687,0.5118 0.1692,0.026 1.1441,0.0503 1.1679,0.1462 0.0546,0.0136 0.0547,0.0379 0.0547,0.0914 0.0444,0.0148 0.0229,0.8791 0.0365,1.0601 0.035,0.4626 0.4918,0.9034 0.2168,1.3857 -0.2843,0.4468 -0.6429,0.8924 -1.0779,1.1445 -0.6567,0.3807 -1.4506,0.4891 -2.1262,0.8298 -1.2076,0.6092 -2.4785,1.2493 -3.6916,2.0501 -1.392,0.9189 -6.2109,1.0386 -6.2109,3.094l0 0c2.0059,0 5.5955,0.6993 6.1014,3.0106 0.3276,1.4967 1.4822,1.7106 2.8102,2.3395 1.282,0.607 2.1755,1.4909 3.5037,2.1568 0.9296,0.4252 2.2109,1.6632 3.157,1.6632 1.2983,0 1.5287,-0.238 2.5183,0.6763 1.2893,1.1914 1.1811,1.2505 0.2372,2.7781 -0.2845,0.4603 -0.2205,1.1041 -0.4744,1.4988 -0.5569,0.8653 -1.7323,1.4654 -2.0986,2.4308 -0.4741,1.2499 -1.2587,2.8863 -2.1351,3.9662 -0.6034,0.7434 -1.1027,-0.2806 -1.6423,-0.5666 -0.5258,-0.2788 -0.8425,0.6454 -1.1132,1.0784 -0.2274,0.7008 -1.0741,1.742 -0.5474,2.3578 1.611,1.8831 -0.8293,1.3746 -1.3139,2.833 -0.1062,0.3195 -0.4083,0.9312 -0.2008,1.2428 0.7588,1.1399 0.8715,1.355 -0.3832,2.0654 -0.6738,0.3814 -0.0384,1.1871 0.146,1.718 0.5262,1.515 -1.5876,1.1057 -1.5876,2.3578 0,1.6852 0.1046,1.4626 1.5694,1.8278 0,0.512 0.3887,1.1215 0.4562,1.6632 0.439,1.2093 1.2914,2.143 1.3869,3.3082 0.0528,0.6439 -0.2824,0.8962 0.0365,1.5353 0.3762,0.7542 0.2189,0.9853 0.073,1.7181 -0.1911,0.0476 -0.584,0.6166 -0.584,0.7676 0.8756,0.2908 2.611,0.1486 2.2628,1.6084 -0.1473,0.6176 1.3792,1.3482 1.8431,1.0784 1.4396,-0.8376 2.1474,-2.1131 3.7044,-1.4256 0.9433,0.4164 0.8443,-0.8987 1.2227,-1.1515 0.4138,-0.2763 1.2475,0.1115 1.6788,0.2193 0,0.3944 -0.3329,0.8396 -0.2554,1.1515 0.175,0.0291 0.6511,0.5394 0.8211,0.6763 0.2012,0.1619 1.0037,0.0172 1.0037,0.1645 0.129,0.043 -0.2009,0.8612 -0.2372,0.9869 -0.3087,1.0661 1.29,2.4655 0.1277,3.1437 -0.4451,0.2157 -0.9515,0.1965 -1.3504,0.329 0,1.784 0.1255,1.4074 2.0986,1.4074 0,0.7875 -1.1148,2.3369 -0.146,2.2481l1.8944 -0.1755c0.4043,-2.1448 2.9564,-2.7888 3.2451,-3.3728 0.5666,-1.1462 2.2026,-2.6174 2.548,-3.0212 0.2661,-0.311 0.7897,-1.5832 1.092,-1.6744 0.9012,-0.2719 3.0374,-1.6018 3.8392,-2.9809 0.344,-0.1535 0.8122,0.0203 0.8122,0.5874 0.0224,0.0074 0.0291,0.0141 0.0365,0.0365 0.6685,0 4.0146,-2.925 4.0146,-3.5823 1.5657,-2.7463 2.1089,-1.6248 4.6351,-0.658 1.1951,0.4574 1.7909,0.6833 2.8103,1.3891 0.6455,0.4468 1.7945,0.1851 2.5183,0.3655l0.9124 2.833c0.6162,1.9133 0.0806,3.7538 1.5876,5.3553 1.6315,1.7336 3.1761,3.3335 5.511,4.1855 0.6029,0.2611 1.6394,0.6894 2.1168,1.1332 1.2207,1.1347 0.9437,1.4987 2.9198,1.4987 1.7933,0 2.8529,2.0278 4.9818,2.1019 1.2832,0.0446 1.9625,0.6059 3.1205,0.8773 0.9503,0.2228 1.7185,0.0732 2.646,0.0732l0 0.0365 -0.6204 2.2116c-0.6595,2.3514 -1.9816,1.7594 -3.084,3.2899 -0.1734,0.2407 -0.0471,0.91 -0.5292,0.7494 -0.9808,-0.3269 -1.8805,-0.3739 -1.9526,0.8956 -0.1193,2.101 -1.0625,-0.074 -2.7738,0.3472 -1.8857,0.4642 -1.6984,1.9011 -0.1642,2.5589 1.6509,1.7804 2.6693,3.1071 5.365,3.1071 1.5438,0 0.9393,0.1458 1.6059,1.2246 0.7665,1.2403 1.9606,1.9828 2.0621,3.5641 0.031,0.483 -0.0464,2.4208 0.4197,2.3943 1.1767,-0.0668 1.6046,0.3094 2.4635,-0.6214 0.895,-0.97 1.8266,0.7774 2.2811,1.3891 1.0931,1.4713 0.817,1.1438 2.4453,0.6031 0,-0.0737 -0.933,-0.6057 -1.0949,-0.7676 -0.4069,-0.4069 0.2614,-0.7718 0.3467,-1.115 -0.416,-0.1381 0.2516,-1.3553 0.5474,-1.188 0.1808,0.1022 0.9877,1.1762 1.0584,1.3891 1.575,0 1.7405,1.0695 3.303,1.3708 1.6159,0.3115 1.7154,0.8981 1.7154,2.2116 0.0526,0.5641 1.0325,1.1245 1.5328,1.2245 0.0557,0.1677 0.042,0.0878 0,0.2559 -1.3086,0.4362 -0.0856,1.4892 0,1.9192 0.0129,0.0043 0.1052,0.0967 0.1095,0.1096 3.8764,0 3.5584,0.6829 6.2045,3.0341 1.3588,1.2075 0.9504,1.1787 2.7555,1.0966 0.3289,-0.0149 1.0206,0.3036 1.2774,0.0731 0.1755,-0.1576 0.6676,-0.7128 0.8577,-0.7128 0.0095,0.0287 0.0432,0.045 0.0547,0.0914 0.3094,0.044 0.8941,1.5269 0.9307,1.5353 1.4478,0.3328 1.7541,0.3997 1.4051,2.2115 -0.285,1.4801 0.2149,1.1219 0.2737,2.3578 0.0371,0.7789 6.8797,0.5992 6.8797,-1.3342 0.0281,-0.0093 0.0182,0.0003 0.0182,-0.0366l0.0183 -0.0183c2.2837,-0.5709 0.8945,1.2395 1.3869,2.2299 0.573,0 0.7676,0.105 1.2956,-0.2925 1.0542,-0.2453 1.8244,-0.7021 2.9745,-0.5483 2.0193,0.27 1.836,1.4153 3.7044,-0.4569 0.9118,-0.9138 1.7893,-0.8593 2.9198,-1.3891 0.6312,-0.2957 1.5561,0.3561 1.9708,0.8042 0.2303,0.2487 1.3559,0.6962 1.3322,0.7677 -0.4224,1.2749 -0.4573,0.8336 0.1459,2.0105 0.2652,0.5173 -1.1861,0.7786 -1.1861,1.5353 2.0897,0.5224 1.2517,-2.6145 3.084,-2.0288 1.9278,0.6161 2.356,1.0802 0.2372,1.6084 0,1.5941 2.4967,0.7626 3.2482,0.9504 0.1291,0.6487 -0.6248,1.1606 0.1278,1.6267 0.9237,0.5719 0.9306,1.9622 2.135,2.7782 2.3159,1.5692 4.0252,0.0028 4.8906,-2.3761 0.4291,-1.1795 -0.1207,-1.5109 0.0365,-2.4857 0.2009,-1.245 0.973,-1.6825 2.1762,-1.6941l0 0c0.0378,-0.8279 0.304,-1.836 0.255,-2.5368 -0.0969,-1.3831 -0.1943,-2.7664 -0.2912,-4.1496 -0.0741,-1.0567 1.0739,-2.1695 1.82,-2.7664 2.2898,-1.832 1.8479,-3.6281 2.3296,-6.2972 0.2299,-1.2743 1.0087,-2.6496 1.8564,-3.6036 0.669,-0.7529 2.3412,0.6117 2.5844,1.2376 0.3076,0.7938 0.9702,-1.3053 1.092,-1.3832 2.3877,-1.5253 -1.2922,-3.2942 0.3276,-4.914 0.0121,-0.012 0.0244,-0.0243 0.0364,-0.0364 0.5517,-0.5517 1.6214,1.1814 2.1476,0.6552 0.2017,-0.2017 -0.1121,-1.4985 -0.0364,-1.8928 0.1946,-1.0129 0.2184,-1.8843 0.2184,-2.9484 0,-0.9675 1.2925,-1.9078 1.2376,-3.0212 -0.0366,-0.7428 -2.3205,-0.6676 -2.548,-1.7836 -0.1909,-0.9361 -0.3822,-1.8725 -0.5732,-2.8087 -0.3573,-1.7516 -2.9708,-3.4885 -1.2104,-3.4885 0.8197,0 2.2148,0.713 2.8392,1.2376 0.161,0.1353 0.4252,-0.0293 0.5824,-0.182 0.1441,-0.14 -0.1269,-1.1309 -0.1456,-1.4196 -0.1418,-2.1829 2.5494,-2.3144 3.094,-3.4944 0.2001,-0.4337 -0.1662,-1.2337 0,-1.456 1.1525,-1.5408 2.3054,-3.0819 3.458,-4.6228 1.4183,-1.896 -0.6236,-1.9925 -1.4924,-3.7856 -0.1859,-0.3839 -1.9423,-4.1348 -1.092,-4.55 2.5904,-1.2631 1.8567,-4.2464 5.642,-2.9848 1.1359,0.3785 2.3887,-0.0128 2.1112,-1.456 -0.2892,-1.5041 2.1198,-1.6624 2.5977,-2.5201 1.06,-1.9023 -0.1353,-5.9224 3.2991,-7.1623 2.6003,-0.9387 2.8233,1.8771 4.5136,-1.1648 0.47,-0.8459 0.9804,-0.8907 1.82,-1.3104 1.2551,-0.6274 1.3971,-3.0351 2.548,-4.186 0.665,-0.665 2.3451,-1.1415 2.5844,-2.0748 0.2096,-0.3165 0.6142,-0.4925 0.8723,-0.7811 1.1091,-1.2402 1.6531,-0.343 1.4052,-2.504 -0.1176,-1.0258 -1.1179,-0.6624 -0.0365,-1.5901 0.4325,-0.3711 1.5793,-2.1242 1.7153,-2.6685 0.6113,0.203 0.6951,2.3631 1.2774,2.9792 0.3557,0.3762 2.5769,-0.6032 3.2847,-0.6032 0.4632,0 0.6985,-0.0392 0.7957,-0.1398l0 0c0.162,-0.1678 -0.0594,-0.5067 -0.2482,-1.1213 -0.2052,-0.6677 -0.0983,-2.33 -0.438,-2.7051 -1.1055,-1.2203 -2.612,-0.6718 -3.7409,-1.5901 -0.5484,-0.446 -2.0226,-0.1129 -2.7555,-0.329 -0.8681,-0.2559 -1.5914,-0.8297 -2.5366,-1.0966 -1.4878,-0.4203 -1.7823,-0.1403 -3.1204,-1.1332 -1.8745,-0.2669 -2.6297,-3.9724 -3.9782,-4.7339l-5.8577 -3.3082c-1.2816,-0.7237 -2.4695,-1.932 -3.7957,-2.5222 -0.1673,-0.0745 -0.6141,1.4696 -0.8394,1.7729 -0.3898,0.5246 -1.8956,0.7999 -2.1534,0.1645 -0.6064,-0.3479 -1.0277,-1.1489 -1.5876,-1.5536 -0.7453,-0.5389 -1.5383,-0.154 -2.354,-0.4204 -1.2763,-0.4167 -2.0196,-2.7625 -2.9745,-2.1567 -1.1525,0.731 -2.0957,0.113 -3.0658,-0.8591 -0.7956,-0.7974 -3.0965,-2.4746 -4.0511,-1.4073 -0.2138,0.2391 -1.3859,-0.0395 -1.7884,-0.1462 -0.5286,-0.14 -0.4417,-0.5057 -0.7664,-0.7677 -1.2742,-1.0278 -0.4073,-0.7311 -0.4744,-1.7546 -0.0365,-0.5568 -0.5373,-0.5175 -0.511,-0.7494 0.1431,-1.26 0.0127,-2.037 -0.7117,-3.0889 -0.3219,-1.2877 0.8085,-1.302 1.6789,-2.2481 0.8992,-0.9772 0.4144,-2.3357 0.3284,-3.4727 -0.0255,-0.3378 -2.4644,-0.005 -2.6277,-0.53 -0.3607,-1.1599 0.8839,-1.4692 -0.365,-2.8147 -0.2899,-0.3122 -2.0699,-0.6453 -2.0986,-0.5301 -0.1114,0 -0.8502,2.5347 -1.4964,2.2116 -1.0747,-0.5372 -1.9529,-0.8507 -2.1715,-1.9923 -0.1548,-0.8081 -0.4307,-0.8196 -0.8942,-1.4621 -0.4462,-0.6184 -1.6702,-0.7498 -2.427,-0.8956 -0.4124,-0.0795 -2.3784,-1.7763 -3.011,-2.1385 -0.4521,-0.6022 -1.9225,-0.6397 -2.6278,-0.6397 -0.1247,-0.3757 -0.4745,-1.2696 -0.4745,-1.6632 -0.0407,-0.0175 -0.0458,-0.0096 -0.0547,-0.0366 -1.0873,-0.2174 -2.2082,-2.4652 -2.5913,-3.6189 -0.6058,0 -2.788,0.3144 -3.011,0.0914 -0.7493,-0.7493 -2.3922,-0.5757 -2.6642,-1.2794 -0.3036,-0.7857 -1.3545,0.1218 -1.7519,0.4203 -0.4181,1.6818 -1.6564,0.5037 -2.573,0.6032 -1.2415,0.1349 -1.2698,1.0195 -2.1898,1.4256 -0.6654,0.2938 -1.3315,-0.2803 -1.4417,0.4387 -0.1423,0.9292 -1.2979,0.4974 -2.1715,0.329 -1.1872,-0.2288 -1.746,-2.5551 -2.0986,-2.6137 -0.029,-0.1163 -0.4901,-0.1587 -0.5839,-0.1828 -0.6436,-0.2137 -0.1634,-1.2283 -0.3103,-1.6998 -0.1573,-0.5054 -1.4233,-1.2642 -1.4233,-1.4256 -0.1928,0 -0.6397,0.332 -0.8395,0.4204 -0.5634,0.249 -3.4454,0.3827 -3.5219,0.1828 -0.0982,-0.2566 -0.1038,-0.6532 -0.1825,-0.9322 -0.1222,-0.4336 -0.438,-1.0462 -0.438,-1.4804 -1.1145,0 -0.7627,-1.4658 -0.8941,-2.1385 -0.2537,-0.3389 -2.5635,-0.7721 -3.0658,-0.8773 -0.8093,-0.1694 -2.3374,-1.4014 -2.6825,-2.1385 -0.7998,-1.7086 0.6355,-4.3225 -1.6789,-5.337 -1.2425,-0.8895 -2.2034,-0.3872 -0.8394,-2.2481 0.6868,-0.9371 -0.915,-1.9002 -1.2774,-2.705 -0.1724,-0.3827 -0.1548,-1.5316 -0.4927,-1.7181 -0.9667,-0.5335 -2.0565,-0.524 -2.2263,-1.9191 -0.2286,-1.8771 -1.871,-1.4762 -2.2445,-2.6685 -0.1404,-0.448 -0.592,-1.2885 -1.1132,-1.4622 -0.3357,-0.1118 -1.6188,-0.8079 -1.6606,-0.7311 -0.6164,1.1298 -0.7885,1.4355 -0.6387,2.7416 0.1737,1.5147 -1.0144,1.3813 -1.8066,2.3943 -0.7727,0.9879 0.0165,2.6219 -1.5146,3.0158 -1.1836,0.3046 -3.453,0.783 -2.5001,2.5588 -0.1243,0.3992 -0.2558,0.7456 -0.4137,0.9282l0 0z"/>
  
 </g>
</svg>